<?xml version="1.0" encoding="UTF-8" standalone="no"?>
<!-- Created with Inkscape (http://www.inkscape.org/) -->

<svg
   xmlns:dc="http://purl.org/dc/elements/1.1/"
   xmlns:cc="http://creativecommons.org/ns#"
   xmlns:rdf="http://www.w3.org/1999/02/22-rdf-syntax-ns#"
   xmlns:svg="http://www.w3.org/2000/svg"
   xmlns="http://www.w3.org/2000/svg"
   xmlns:xlink="http://www.w3.org/1999/xlink"
   xmlns:sodipodi="http://sodipodi.sourceforge.net/DTD/sodipodi-0.dtd"
   xmlns:inkscape="http://www.inkscape.org/namespaces/inkscape"
   width="512"
   height="512"
   id="svg2985"
   version="1.1"
   inkscape:version="0.48.1 r9760"
   sodipodi:docname="editorIcon.svg">
  <sodipodi:namedview
     id="base"
     pagecolor="#ffffff"
     bordercolor="#666666"
     borderopacity="1.0"
     inkscape:pageopacity="0.0"
     inkscape:pageshadow="2"
     inkscape:zoom="1"
     inkscape:cx="312"
     inkscape:cy="255.0341"
     inkscape:current-layer="layer1"
     showgrid="true"
     inkscape:document-units="px"
     inkscape:grid-bbox="true"
     inkscape:window-width="1369"
     inkscape:window-height="789"
     inkscape:window-x="0"
     inkscape:window-y="0"
     inkscape:window-maximized="0" />
  <defs
     id="defs2987">
    <linearGradient
       id="linearGradient3852">
      <stop
         style="stop-color:#807426;stop-opacity:1;"
         offset="0"
         id="stop3854" />
      <stop
         id="stop3870"
         offset="0.125"
         style="stop-color:#c5af35;stop-opacity:1;" />
      <stop
         id="stop3868"
         offset="0.25"
         style="stop-color:#705231;stop-opacity:1;" />
      <stop
         id="stop3860"
         offset="0.5"
         style="stop-color:#e7dc47;stop-opacity:1;" />
      <stop
         style="stop-color:#dccd14;stop-opacity:1;"
         offset="0.75"
         id="stop3866" />
      <stop
         style="stop-color:#d3e527;stop-opacity:1;"
         offset="1"
         id="stop3856" />
    </linearGradient>
    <linearGradient
       inkscape:collect="always"
       xlink:href="#linearGradient3852"
       id="linearGradient3858"
       x1="125"
       y1="120.5"
       x2="-14.5"
       y2="-36"
       gradientUnits="userSpaceOnUse"
       gradientTransform="matrix(2.6791656,0,0,2.6751521,163.2497,-273.94235)" />
    <filter
       inkscape:collect="always"
       id="filter4001"
       x="-0.11019208"
       width="1.2203842"
       y="-0.10999159"
       height="1.2199832"
       color-interpolation-filters="sRGB">
      <feGaussianBlur
         inkscape:collect="always"
         stdDeviation="7.8712729"
         id="feGaussianBlur4003" />
    </filter>
  </defs>
  <metadata
     id="metadata2990">
    <rdf:RDF>
      <cc:Work
         rdf:about="">
        <dc:format>image/svg+xml</dc:format>
        <dc:type
           rdf:resource="http://purl.org/dc/dcmitype/StillImage" />
        <dc:title></dc:title>
      </cc:Work>
    </rdf:RDF>
  </metadata>
  <g
     inkscape:groupmode="layer"
     inkscape:label="Layer 1"
     id="layer1"
     transform="translate(0,448)">
    <path
       style="opacity:0.38317757;fill:#000000;fill-opacity:1;stroke:none;filter:url(#filter4001)"
       d="M 91.09375,-441.375 88,-435.0625 l -1.125,4.78125 0.0312,1.59375 -7,0.4375 -0.15625,-1.5625 -1.71875,-4.625 -3.875,-5.875 -4.5,0.84375 -1.4375,6.90625 0.0937,4.90625 0.4375,1.53125 -6.6875,2.15625 -0.5625,-1.46875 -2.78125,-4.0625 -5.21875,-4.71875 -4.15625,1.96875 0.3125,7.03125 L 51,-420.5 l 0.78125,1.375 -5.9375,3.75 -0.90625,-1.28125 -3.71875,-3.21875 -6.21875,-3.28125 -3.53125,2.90625 2.0625,6.75 2.46875,4.25 1.09375,1.125 -4.8125,5.125 -1.1875,-1.03125 -4.40625,-2.1875 -6.84375,-1.625 -2.6875,3.6875 3.65625,6.03125 3.46875,3.5 1.3125,0.8125 -3.375,6.15625 -1.40625,-0.6875 L 16,-389.375 l -7.03125,0.125 -1.6875,4.25 5.03125,4.90625 4.21875,2.5625 1.5,0.4375 -1.71875,6.8125 -1.5625,-0.3125 -4.90625,0.1875 -6.78125,1.875 -0.59375,4.53125 6.125,3.5 4.71875,1.40625 1.5625,0.0937 0,7 -1.5625,0.0937 -4.71875,1.40625 -6.125,3.5 0.59375,4.53125 6.78125,1.875 4.90625,0.1875 1.5625,-0.3125 1.71875,6.8125 -1.5,0.4375 -4.21875,2.5625 -5.03125,4.90625 1.6875,4.25 7.03125,0.125 4.8125,-1.03125 1.40625,-0.6875 3.375,6.15625 -1.3125,0.8125 -3.46875,3.5 -3.65625,6.03125 2.6875,3.6875 6.84375,-1.625 4.40625,-2.1875 1.1875,-1.03125 4.8125,5.125 -1.09375,1.125 -2.46875,4.25 -2.0625,6.75 3.53125,2.90625 6.21875,-3.28125 3.71875,-3.21875 0.90625,-1.28125 5.9375,3.75 -0.78125,1.375 -1.34375,4.71875 -0.3125,7.03125 4.15625,1.96875 5.21875,-4.71875 2.78125,-4.0625 0.5625,-1.46875 6.6875,2.15625 -0.4375,1.53125 -0.0937,4.90625 1.4375,6.90625 4.5,0.84375 3.875,-5.875 1.71875,-4.625 0.15625,-1.5625 7,0.4375 -0.0312,1.59375 1.125,4.78125 3.09375,6.3125 4.59375,-0.28125 2.28125,-6.65625 0.5,-4.90625 L 98.25,-283 l 6.90625,-1.3125 0.34375,1.5 2.28125,4.375 4.59375,5.34375 4.34375,-1.40625 0.5625,-7 -0.71875,-4.90625 -0.59375,-1.4375 6.34375,-2.96875 0.71875,1.375 3.3125,3.65625 5.75,4.0625 3.875,-2.46875 -1.1875,-6.9375 -1.9375,-4.53125 -0.9375,-1.25 5.40625,-4.46875 1.0625,1.15625 4.09375,2.71875 6.59375,2.46875 3.125,-3.3125 -2.875,-6.4375 -3,-3.90625 -1.21875,-1 4.125,-5.65625 1.3125,0.84375 4.65625,1.625 7,0.78125 2.1875,-4.03125 -4.375,-5.5 -3.875,-3.0625 -1.4375,-0.625 2.59375,-6.53125 1.5,0.5 4.90625,0.4375 6.96875,-1 1.125,-4.4375 -5.625,-4.25 -4.5,-2 -1.53125,-0.25 0.875,-6.96875 1.5625,0.125 4.84375,-0.8125 6.5,-2.71875 0,-4.5625 -6.5,-2.71875 -4.84375,-0.8125 -1.5625,0.125 -0.875,-6.96875 1.53125,-0.25 4.5,-2 5.625,-4.25 -1.125,-4.4375 -6.96875,-1 -4.90625,0.4375 -1.5,0.5 -2.59375,-6.53125 1.4375,-0.625 3.875,-3.0625 4.375,-5.5 -2.1875,-4.03125 -7,0.78125 -4.65625,1.625 -1.3125,0.84375 -4.125,-5.65625 1.21875,-1 3,-3.90625 2.875,-6.4375 -3.125,-3.3125 -6.59375,2.46875 -4.09375,2.71875 -1.0625,1.15625 -5.40625,-4.46875 0.9375,-1.25 1.9375,-4.53125 1.1875,-6.9375 -3.875,-2.46875 -5.75,4.0625 -3.3125,3.65625 -0.71875,1.375 -6.34375,-2.96875 0.59375,-1.4375 0.71875,-4.90625 -0.5625,-7 -4.34375,-1.40625 -4.59375,5.34375 -2.28125,4.375 -0.34375,1.5 L 98.25,-428 l 0.21875,-1.53125 -0.5,-4.90625 -2.28125,-6.65625 -4.59375,-0.28125 z m -2.90625,18.96875 c 9.67184,0 18.8577,1.98263 27.1875,5.53125 l -24.09375,44.1875 c -1.15771,-0.23283 -2.36747,-0.375 -3.59375,-0.375 -4.58121,0 -8.75277,1.72109 -11.9375,4.53125 L 31.5,-392.6875 c 12.14949,-17.91062 32.99628,-29.71875 56.6875,-29.71875 z m 37.03125,10.6875 c 18.59481,11.80209 30.90625,32.2379 30.90625,55.46875 0,10.03574 -2.30035,19.54205 -6.40625,28.0625 l -44.1875,-24.125 c 0.13088,-0.87721 0.21875,-1.77385 0.21875,-2.6875 0,-4.73313 -1.8341,-9.02874 -4.8125,-12.25 l 24.28125,-44.46875 z M 26.09375,-383 l 44,24 c -0.28997,1.28492 -0.46875,2.62745 -0.46875,4 0,4.901 1.95675,9.33893 5.125,12.59375 L 51.8125,-300.375 c -18.95143,-11.73513 -31.53125,-32.37235 -31.53125,-55.875 0,-9.52646 2.09378,-18.56746 5.8125,-26.75 z M 88,-362.5 c 4.14214,0 7.5,3.02208 7.5,6.75 0,3.72792 -3.35786,6.75 -7.5,6.75 -4.14214,0 -7.5,-3.02208 -7.5,-6.75 0,-3.72792 3.35786,-6.75 7.5,-6.75 z m 12.59375,20.15625 43.46875,23.71875 c -12.26493,17.23842 -32.71536,28.53125 -55.875,28.53125 -9.37765,0 -18.31298,-1.84036 -26.4375,-5.1875 l 22.84375,-41.9375 c 1.004,0.17301 2.04035,0.28125 3.09375,0.28125 5.05293,0 9.62735,-2.06274 12.90625,-5.40625 z"
       id="path3899"
       inkscape:connector-curvature="0"
       transform="matrix(2.6791657,0,0,2.6751521,18.574768,764.01665)" />
    <path
       style="fill:url(#linearGradient3858);fill-opacity:1;stroke:#000000;stroke-width:2.67715812"
       d="m 262.63001,-419.40375 -8.28867,16.8869 -3.01406,12.79057 0.0836,4.26352 -18.75417,1.17038 -0.41862,-4.17992 -4.60482,-12.37258 -10.38177,-15.71652 -12.05623,2.25716 -3.85131,18.47527 0.25104,13.12497 1.17214,4.09632 -17.91693,5.76829 -1.50703,-3.92912 -7.45143,-10.8678 -13.98189,-12.62338 -11.13529,5.2667 0.83725,18.80967 3.60039,12.62337 2.09309,3.67834 -15.90754,10.03182 -2.42799,-3.42755 -9.96315,-8.61064 -16.66106,-8.77784 -9.46081,7.77466 5.52578,18.05727 6.6142,11.3694 2.93034,3.00955 -12.89349,13.71015 -3.18151,-2.75875 -11.805078,-5.8519 -18.335541,-4.34711 -7.200258,9.86462 9.7957,16.1345 9.293356,9.36304 3.516405,2.17356 -9.042184,16.4689 -3.767577,-1.83916 -12.893485,-2.75875 -18.837885,0.33439 -4.521091,11.3694 13.479552,13.12496 11.302731,6.85509 4.018748,1.17037 -4.604816,18.22448 -4.186196,-0.83599 -13.144657,0.50159 -18.168092,5.01591 -1.590756,12.12179 16.409891,9.36302 12.642313,3.76194 4.186196,0.25066 0,18.72606 -4.186196,0.25067 -12.642313,3.76193 -16.409891,9.36303 1.590756,12.12179 18.168092,5.0159 13.144657,0.5016 4.186196,-0.83599 4.604816,18.22448 -4.018748,1.17037 -11.302731,6.85508 -13.479552,13.12496 4.521091,11.3694 18.837885,0.334399 12.893485,-2.758749 3.767577,-1.83917 9.042184,16.468903 -3.516405,2.173561 -9.293356,9.363032 -9.7957,16.134511 7.200258,9.864624 18.335541,-4.347122 11.805078,-5.851895 3.18151,-2.758752 12.89349,13.710155 -2.93034,3.009546 -6.6142,11.369396 -5.52578,18.057278 9.46081,7.7746606 16.66106,-8.7778436 9.96315,-8.610645 2.42799,-3.427539 15.90754,10.03182 -2.09309,3.678334 -3.60012,12.6233743 -0.83725,18.8096627 11.13529,5.266706 13.98189,-12.6233734 7.45143,-10.8678058 1.50703,-3.92913 17.91692,5.76829713 -1.17213,4.09632637 -0.25104,13.1249647 3.8513,18.47527 12.05624,2.25716 10.38177,-15.716519 4.60482,-12.3725784 0.41862,-4.179925 18.75416,1.1703788 -0.0836,4.2635236 3.01406,12.790571 8.28867,16.886897 12.30742,-0.752386 6.11184,-17.806481 1.33958,-13.1249657 -0.58633,-4.0960583 18.50299,-3.51113748 0.92096,4.01272768 6.11185,11.7037908 12.30741,14.295344 11.63763,-3.761933 1.50704,-18.7260644 -1.92566,-13.1249647 -1.59075,-3.8455313 16.99595,-7.9418576 1.92566,3.678334 8.87473,9.7810248 15.40521,10.8678059 10.38176,-6.6042822 -3.1815,-18.5588675 -5.19089,-12.121783 -2.51171,-3.34394 14.48423,-11.954586 2.84662,3.093145 10.96783,7.273069 17.66575,6.604282 8.37239,-8.861441 -7.7026,-17.221291 -8.0375,-10.449814 -3.26523,-2.675151 11.05156,-15.13133 3.5164,2.25716 12.47486,4.347122 18.75417,2.089963 5.86067,-10.784207 -11.72135,-14.713341 -10.38176,-8.192649 -3.85131,-1.67197 6.94909,-17.47208 4.01875,1.33757 13.14466,1.17038 18.67043,-2.67515 3.01407,-11.87099 -15.07032,-11.3694 -12.05623,-5.3503 -4.10249,-0.66879 2.34428,-18.64247 4.18619,0.3344 12.97722,-2.17356 17.41457,-7.27308 0,-12.20537 -17.41457,-7.27308 -12.97722,-2.17356 -4.18619,0.3344 -2.34428,-18.64246 4.10249,-0.66879 12.05623,-5.35031 15.07032,-11.36939 -3.01407,-11.87099 -18.67043,-2.67516 -13.14466,1.17039 -4.01875,1.33757 -6.94909,-17.47209 3.85131,-1.67197 10.38176,-8.19265 11.72135,-14.71334 -5.86067,-10.78421 -18.75417,2.08996 -12.47486,4.34713 -3.5164,2.25716 -11.05156,-15.13132 3.26523,-2.67517 8.0375,-10.44981 7.7026,-17.22129 -8.37239,-8.86143 -17.66575,6.60427 -10.96783,7.27308 -2.84662,3.09314 -14.48423,-11.95458 2.51171,-3.34395 5.19089,-12.12178 3.1815,-18.55887 -10.38176,-6.60428 -15.40521,10.86781 -8.87473,9.78102 -1.92566,3.67834 -16.99595,-7.94186 1.59075,-3.84553 1.92566,-13.12496 -1.50704,-18.72608 -11.63763,-3.76192 -12.30741,14.29534 -6.11185,11.70379 -0.92096,4.01273 -18.50299,-3.51114 0.58607,-4.09632 -1.33958,-13.12497 -6.11185,-17.80648 -12.30742,-0.75239 z m -7.78632,50.74429 c 25.91246,0 50.5229,5.30384 72.83981,14.79693 l -64.55115,118.20829 c -3.10169,-0.62286 -6.34284,-1.00319 -9.62825,-1.00319 -12.27382,0 -23.45012,4.60419 -31.98253,12.12179 l -118.55309,-64.62164 c 32.55049,-47.91364 88.40251,-79.50218 151.87521,-79.50218 z m 99.21285,28.59069 c 49.81858,31.57238 82.80297,86.24129 82.80297,148.38734 0,26.84714 -6.16302,52.27795 -17.16341,75.07146 l -118.38563,-64.53805 c 0.35064,-2.34667 0.58607,-4.74532 0.58607,-7.18947 0,-12.66184 -4.91387,-24.15325 -12.89349,-32.77061 l 65.05349,-118.96067 z m -265.572303,76.82703 117.883293,64.20365 c -0.77687,3.43735 -1.25586,7.02882 -1.25586,10.7006 0,13.11092 5.24246,24.98306 13.73072,33.6902 L 157.38903,-42.207305 C 106.61501,-73.600562 72.911586,-128.80826 72.911586,-191.68143 c 0,-25.48473 5.609583,-49.67078 15.572651,-71.56031 z m 165.857103,54.84061 c 11.09748,0 20.09374,8.08452 20.09374,18.05728 0,9.97275 -8.99626,18.05727 -20.09374,18.05727 -11.09748,0 -20.09375,-8.08452 -20.09375,-18.05727 0,-9.97276 8.99627,-18.05728 20.09375,-18.05728 z m 33.74074,53.92104 116.45999,63.45126 c -32.85978,46.115395 -87.64987,76.325432 -149.69838,76.325432 -25.12428,0 -49.06351,-4.923242 -70.83045,-13.877351 l 61.2022,-112.189191 c 2.68988,0.46283 5.46643,0.75239 8.28866,0.75239 13.53764,0 25.79327,-5.51814 34.57798,-14.46254 z"
       id="path3019"
       inkscape:connector-curvature="0" />
    <path
       inkscape:connector-curvature="0"
       id="path3897"
       d="m 262.63001,-419.40375 -8.28867,16.8869 -3.01406,12.79057 0.0836,4.26352 -18.75417,1.17038 -0.41862,-4.17992 -4.60482,-12.37258 -10.38177,-15.71652 -12.05623,2.25716 -3.85131,18.47527 0.25104,13.12497 1.17214,4.09632 -17.91693,5.76829 -1.50703,-3.92912 -7.45143,-10.8678 -13.98189,-12.62338 -11.13529,5.2667 0.83725,18.80967 3.60039,12.62337 2.09309,3.67834 -15.90754,10.03182 -2.42799,-3.42755 -9.96315,-8.61064 -16.66106,-8.77784 -9.46081,7.77466 5.52578,18.05727 6.6142,11.3694 2.93034,3.00955 -12.89349,13.71015 -3.18151,-2.75875 -11.805078,-5.8519 -18.335541,-4.34711 -7.200258,9.86462 9.7957,16.1345 9.293356,9.36304 3.516405,2.17356 -9.042184,16.4689 -3.767577,-1.83916 -12.893485,-2.75875 -18.837885,0.33439 -4.521091,11.3694 13.479552,13.12496 11.302731,6.85509 4.018748,1.17037 -4.604816,18.22448 -4.186196,-0.83599 -13.144657,0.50159 -18.168092,5.01591 -1.590756,12.12179 16.409891,9.36302 12.642313,3.76194 4.186196,0.25066 0,18.72606 -4.186196,0.25067 -12.642313,3.76193 -16.409891,9.36303 1.590756,12.12179 18.168092,5.0159 13.144657,0.5016 4.186196,-0.83599 4.604816,18.22448 -4.018748,1.17037 -11.302731,6.85508 -13.479552,13.12496 4.521091,11.3694 18.837885,0.334399 12.893485,-2.758749 3.767577,-1.83917 9.042184,16.468903 -3.516405,2.173561 -9.293356,9.363032 -9.7957,16.134511 7.200258,9.864624 18.335541,-4.347122 11.805078,-5.851895 3.18151,-2.758752 12.89349,13.710155 -2.93034,3.009546 -6.6142,11.369396 -5.52578,18.057278 9.46081,7.7746606 16.66106,-8.7778436 9.96315,-8.610645 2.42799,-3.427539 15.90754,10.03182 -2.09309,3.678334 -3.60012,12.6233743 -0.83725,18.8096627 11.13529,5.266706 13.98189,-12.6233734 7.45143,-10.8678058 1.50703,-3.92913 17.91692,5.76829713 -1.17213,4.09632637 -0.25104,13.1249647 3.8513,18.47527 12.05624,2.25716 10.38177,-15.716519 4.60482,-12.3725784 0.41862,-4.179925 18.75416,1.1703788 -0.0836,4.2635236 3.01406,12.790571 8.28867,16.886897 12.30742,-0.752386 6.11184,-17.806481 1.33958,-13.1249657 -0.58633,-4.0960583 18.50299,-3.51113748 0.92096,4.01272768 6.11185,11.7037908 12.30741,14.295344 11.63763,-3.761933 1.50704,-18.7260644 -1.92566,-13.1249647 -1.59075,-3.8455313 16.99595,-7.9418576 1.92566,3.678334 8.87473,9.7810248 15.40521,10.8678059 10.38176,-6.6042822 -3.1815,-18.5588675 -5.19089,-12.121783 -2.51171,-3.34394 14.48423,-11.954586 2.84662,3.093145 10.96783,7.273069 17.66575,6.604282 8.37239,-8.861441 -7.7026,-17.221291 -8.0375,-10.449814 -3.26523,-2.675151 11.05156,-15.13133 3.5164,2.25716 12.47486,4.347122 18.75417,2.089963 5.86067,-10.784207 -11.72135,-14.713341 -10.38176,-8.192649 -3.85131,-1.67197 6.94909,-17.47208 4.01875,1.33757 13.14466,1.17038 18.67043,-2.67515 3.01407,-11.87099 -15.07032,-11.3694 -12.05623,-5.3503 -4.10249,-0.66879 2.34428,-18.64247 4.18619,0.3344 12.97722,-2.17356 17.41457,-7.27308 0,-12.20537 -17.41457,-7.27308 -12.97722,-2.17356 -4.18619,0.3344 -2.34428,-18.64246 4.10249,-0.66879 12.05623,-5.35031 15.07032,-11.36939 -3.01407,-11.87099 -18.67043,-2.67516 -13.14466,1.17039 -4.01875,1.33757 -6.94909,-17.47209 3.85131,-1.67197 10.38176,-8.19265 11.72135,-14.71334 -5.86067,-10.78421 -18.75417,2.08996 -12.47486,4.34713 -3.5164,2.25716 -11.05156,-15.13132 3.26523,-2.67517 8.0375,-10.44981 7.7026,-17.22129 -8.37239,-8.86143 -17.66575,6.60427 -10.96783,7.27308 -2.84662,3.09314 -14.48423,-11.95458 2.51171,-3.34395 5.19089,-12.12178 3.1815,-18.55887 -10.38176,-6.60428 -15.40521,10.86781 -8.87473,9.78102 -1.92566,3.67834 -16.99595,-7.94186 1.59075,-3.84553 1.92566,-13.12496 -1.50704,-18.72608 -11.63763,-3.76192 -12.30741,14.29534 -6.11185,11.70379 -0.92096,4.01273 -18.50299,-3.51114 0.58607,-4.09632 -1.33958,-13.12497 -6.11185,-17.80648 -12.30742,-0.75239 z m -7.78632,50.74429 c 25.91246,0 50.5229,5.30384 72.83981,14.79693 l -64.55115,118.20829 c -3.10169,-0.62286 -6.34284,-1.00319 -9.62825,-1.00319 -12.27382,0 -23.45012,4.60419 -31.98253,12.12179 l -118.55309,-64.62164 c 32.55049,-47.91364 88.40251,-79.50218 151.87521,-79.50218 z m 99.21285,28.59069 c 49.81858,31.57238 82.80297,86.24129 82.80297,148.38734 0,26.84714 -6.16302,52.27795 -17.16341,75.07146 l -118.38563,-64.53805 c 0.35064,-2.34667 0.58607,-4.74532 0.58607,-7.18947 0,-12.66184 -4.91387,-24.15325 -12.89349,-32.77061 l 65.05349,-118.96067 z m -265.572303,76.82703 117.883293,64.20365 c -0.77687,3.43735 -1.25586,7.02882 -1.25586,10.7006 0,13.11092 5.24246,24.98306 13.73072,33.6902 L 157.38903,-42.207305 C 106.61501,-73.600562 72.911586,-128.80826 72.911586,-191.68143 c 0,-25.48473 5.609583,-49.67078 15.572651,-71.56031 z m 165.857103,54.84061 c 11.09748,0 20.09374,8.08452 20.09374,18.05728 0,9.97275 -8.99626,18.05727 -20.09374,18.05727 -11.09748,0 -20.09375,-8.08452 -20.09375,-18.05727 0,-9.97276 8.99627,-18.05728 20.09375,-18.05728 z m 33.74074,53.92104 116.45999,63.45126 c -32.85978,46.115395 -87.64987,76.325432 -149.69838,76.325432 -25.12428,0 -49.06351,-4.923242 -70.83045,-13.877351 l 61.2022,-112.189191 c 2.68988,0.46283 5.46643,0.75239 8.28866,0.75239 13.53764,0 25.79327,-5.51814 34.57798,-14.46254 z"
       style="fill:none;stroke:#000000;stroke-width:2.67715812" />
  </g>
</svg>
