<?xml version="1.0" encoding="UTF-8" standalone="no"?>
<!-- Created with Inkscape (http://www.inkscape.org/) -->

<svg
   xmlns:dc="http://purl.org/dc/elements/1.1/"
   xmlns:cc="http://creativecommons.org/ns#"
   xmlns:rdf="http://www.w3.org/1999/02/22-rdf-syntax-ns#"
   xmlns:svg="http://www.w3.org/2000/svg"
   xmlns="http://www.w3.org/2000/svg"
   xmlns:sodipodi="http://sodipodi.sourceforge.net/DTD/sodipodi-0.dtd"
   xmlns:inkscape="http://www.inkscape.org/namespaces/inkscape"
   width="66.32"
   height="80.230003"
   id="svg2"
   version="1.1"
   inkscape:version="0.47 r22583"
   sodipodi:docname="New document 1">
  <defs
     id="defs4">
    <inkscape:perspective
       sodipodi:type="inkscape:persp3d"
       inkscape:vp_x="0 : 526.18109 : 1"
       inkscape:vp_y="0 : 1000 : 0"
       inkscape:vp_z="744.09448 : 526.18109 : 1"
       inkscape:persp3d-origin="372.04724 : 350.78739 : 1"
       id="perspective10" />
    <clipPath
       id="clipPath3212"
       clipPathUnits="userSpaceOnUse">
      <path
         id="path3214"
         d="m 0,0 595.276,0 0,841.89 L 0,841.89 0,0 z" />
    </clipPath>
    <clipPath
       id="clipPath3024"
       clipPathUnits="userSpaceOnUse">
      <path
         id="path3026"
         d="m 46.598,708.64 74,0 0,98 -74,0 0,-98 z" />
    </clipPath>
    <clipPath
       id="clipPath3008"
       clipPathUnits="userSpaceOnUse">
      <path
         id="path3010"
         d="m 46.59837,708.64 73.99963,0 0,97.99988 -73.99963,0 0,-97.99988 z" />
    </clipPath>
    <clipPath
       id="clipPath2872"
       clipPathUnits="userSpaceOnUse">
      <path
         id="path2874"
         d="m 46.598,708.64 74,0 0,98 -74,0 0,-98 z" />
    </clipPath>
    <clipPath
       id="clipPath2862"
       clipPathUnits="userSpaceOnUse">
      <path
         id="path2864"
         d="m 0,0 595.276,0 0,586.771 L 0,586.771 0,0 z" />
    </clipPath>
    <clipPath
       id="clipPath2848"
       clipPathUnits="userSpaceOnUse">
      <path
         id="path2850"
         d="m 0,0 595.276,0 0,841.89 L 0,841.89 0,0 z" />
    </clipPath>
    <clipPath
       id="clipPath2838"
       clipPathUnits="userSpaceOnUse">
      <path
         id="path2840"
         d="m 0,0 595.276,0 0,841.89 L 0,841.89 0,0 z" />
    </clipPath>
    <inkscape:perspective
       id="perspective2824"
       inkscape:persp3d-origin="0.5 : 0.33333333 : 1"
       inkscape:vp_z="1 : 0.5 : 1"
       inkscape:vp_y="0 : 1000 : 0"
       inkscape:vp_x="0 : 0.5 : 1"
       sodipodi:type="inkscape:persp3d" />
  </defs>
  <sodipodi:namedview
     id="base"
     pagecolor="#ffffff"
     bordercolor="#666666"
     borderopacity="1.0"
     inkscape:pageopacity="0.0"
     inkscape:pageshadow="2"
     inkscape:zoom="3.9233262"
     inkscape:cx="38.398764"
     inkscape:cy="27.742943"
     inkscape:document-units="px"
     inkscape:current-layer="layer1"
     showgrid="false"
     inkscape:window-width="1680"
     inkscape:window-height="1000"
     inkscape:window-x="-8"
     inkscape:window-y="-8"
     inkscape:window-maximized="1" />
  <metadata
     id="metadata7">
    <rdf:RDF>
      <cc:Work
         rdf:about="">
        <dc:format>image/svg+xml</dc:format>
        <dc:type
           rdf:resource="http://purl.org/dc/dcmitype/StillImage" />
        <dc:title></dc:title>
      </cc:Work>
    </rdf:RDF>
  </metadata>
  <g
     inkscape:label="Layer 1"
     inkscape:groupmode="layer"
     id="layer1"
     transform="translate(-288.09071,-393.19249)">
    <g
       id="g2828"
       transform="matrix(1.25,0,0,-1.25,2.9525,1388.7413)" />
    <g
       id="g2830"
       transform="matrix(1.25,0,0,-1.25,2.9525,1388.7413)" />
    <g
       id="g2842"
       transform="matrix(1.25,0,0,-1.25,85.809643,1403.027)" />
    <g
       id="g2858"
       transform="matrix(1.25,0,0,-1.25,85.809643,1403.027)">
      <g
         clip-path="url(#clipPath2862)"
         id="g2860">
        <g
           transform="matrix(597.3057,0,0,588.7575,-1.093994,-0.9284363)"
           id="g2866" />
      </g>
    </g>
    <g
       id="g2868"
       transform="matrix(1.25,0,0,-1.25,217.83716,1397.5022)">
      <g
         clip-path="url(#clipPath2872)"
         id="g2870">
        <path
           id="path2876"
           style="fill:#ffffff;fill-opacity:1;fill-rule:nonzero;stroke:none"
           d="m 58.64116,801.7769 c -1.08973,-35.852 -4.57485,-46.706 23.85546,-60.1921 28.43028,13.4861 24.94618,24.3401 23.85338,60.1921 l -47.70884,0 z" />
        <g
           transform="matrix(1.013702,0,0,-1,-4.251984,420.9449)"
           id="g2878">
          <path
             id="path2880"
             style="fill:none;stroke:#176fc1;stroke-width:1;stroke-linecap:butt;stroke-linejoin:miter;stroke-miterlimit:4;stroke-opacity:1;stroke-dasharray:none"
             d="m 62.043,-380.832 c -1.075,35.852 -4.513,46.706 23.53301,60.192 28.04599,-13.486 24.60899,-24.34 23.53099,-60.192 l -47.064,0 z" />
        </g>
        <path
           id="path2882"
           style="fill:#1b4f9c;fill-opacity:1;fill-rule:nonzero;stroke:none"
           d="m 82.68821,765.9869 c -2.27374,-0.028 -4.86476,-0.414 -4.78062,0.804 0.10745,1.606 -0.4876,0.444 -0.46834,0.055 0.05475,-1.08 0.58796,-1.662 5.24896,-1.302" />
        <g
           transform="matrix(1.013702,0,0,-1,-4.251984,420.9449)"
           id="g2884">
          <path
             id="path2886"
             style="fill:none;stroke:#1b4f9c;stroke-width:0.177;stroke-linecap:butt;stroke-linejoin:miter;stroke-miterlimit:4;stroke-opacity:1;stroke-dasharray:none"
             d="m 85.76501,-345.0421 c -2.243,0.0281 -4.79901,0.4141 -4.71601,-0.8039 0.10601,-1.606 -0.481,-0.444 -0.46199,-0.0551 0.054,1.0801 0.58,1.6621 5.178,1.302" />
        </g>
        <path
           id="path2888"
           style="fill:#ee293d;fill-opacity:1;fill-rule:nonzero;stroke:none"
           d="m 83.39071,760.5709 0.36999,-0.415 0.27472,-0.329 0.27471,-0.494 0.36797,-0.496 0.73494,-0.411 0.64471,-0.3311 0.82921,-0.3279 0.64066,-0.165 0.64269,-0.165 0.55145,-0.164 0.73392,-0.496 0.45921,-0.493 0.27675,-0.494 0.18347,-0.496 0.27775,-0.413 0.27574,-0.245 0.73796,-0.165 0.54944,0 0.36798,0.329 0.18042,0.577 -0.18042,0.659 -0.55452,0.661 -0.64064,0.657 -1.01371,0.7409 -1.01066,0.7421 -1.10189,0.826 -0.54841,0.658 -0.37204,0.662 -0.2747,0.658 0,0.576 0.09325,0.578 0.18145,0.576 0.27775,0.494 0.55045,0.332 0.55145,0.163 0.73392,0 0.66702,-0.103 0.71364,-0.226 0.83022,-0.412 0.63965,-0.411 0.64167,-0.827 0.64573,-0.576 0.45922,-0.658 0.45717,-0.576 0.64776,-0.496 0.54942,-0.331 0.73393,-0.33 0.4592,0 0.46022,0.164 0,-0.41 -0.27471,-0.331 -0.46326,-0.163 -0.54638,0 -0.46225,0.413 0.55347,-0.661 0.09124,-0.577 0,-0.495 0,-0.412 0.55349,-0.329 0.5484,0.164 0.37203,0.329 0.27472,0.661 0,0.495 0.27471,-0.332 0.27066,-0.493 -0.08921,-0.331 -0.2747,-0.329 0.2747,0.329 0.46123,0.496 0,0.66 0,0.575 -0.27573,0.577 0.54842,-0.657 0.18247,-0.577 0,-0.578 -0.2737,-0.577 -0.18146,-0.412 -0.55347,-0.329 -0.54943,-0.3291 0.64167,0.0811 0.55247,0.248 -0.55247,-0.494 -0.55044,-0.083 -0.55247,-0.247 -0.73797,0.082 -0.82414,0.165 -0.54943,0.411 -0.64573,0.414 -0.27369,0.41 -0.18551,0.578 0,0.5749 0,0.4151 -0.46022,0.082 -0.45821,0.33 -0.18246,0.326 0.09023,0.662 0.2747,-0.496 0.37001,-0.327 0.46022,0 0.18247,0.411 -0.09123,0.2069 -0.18551,0.2871 -0.41461,0.413 -0.41054,0.372 -0.37103,0.451 -0.45717,0.536 -0.59809,0.577 -0.69134,0.619 -0.91841,0.368 -0.68527,0.126 -0.53219,-0.042 -0.34365,-0.204 -0.22808,-0.413 -0.13787,-0.495 0.13787,-0.495 0.36595,-0.495 0.36696,-0.41 0.27775,-0.372 0.64371,-0.618 0.50481,-0.496 0.64371,-0.577 0.50482,-0.411 0.36797,-0.373 0.50382,-0.493 0.2747,-0.493 0.4136,-0.535 0.13786,-0.496 0.13989,-0.412 0.04461,-0.496 -0.09023,-0.411 -0.18551,-0.496 -0.32032,-0.41 -0.59707,-0.165 -0.8059,-0.123 -0.84847,0.164 0.13887,-0.783 0.13484,-0.535 0,-0.455 -0.04157,-0.492 0.22809,-0.167 0.32236,0.207 0.27369,0.164 0,-0.701 -0.09123,-0.369 -0.27674,-0.247 -0.27471,-0.331 -0.82719,-0.123 0.55246,0.041 0.59809,0.082 -0.32336,-0.412 -0.36696,-0.369 -0.50787,-0.124 -0.54841,-0.085 -0.46225,-0.038 c 0.32236,-0.084 0.7836,-0.168 0.7836,-0.168 l 0.41358,-0.04 0.22606,0.083 -0.73088,-0.3701 -0.87585,-0.0829 -0.41257,0 -0.5484,-0.083 0.41054,-0.123 0.96707,-0.083 0.45921,0.04 -0.27877,-0.371 -0.55145,-0.164 -0.4582,-0.1231 c 0,0 -0.23011,-0.0409 -0.36492,0 -0.14091,0.0411 -0.78361,0.1231 -0.78361,0.1231 l 0.41359,-0.289 0.82618,-0.122 -0.54842,-0.33 -0.46225,-0.043 -0.50685,0 -0.41358,0.083 -0.36697,-0.123 -0.45718,-0.125 -0.45819,-0.082 -0.41764,-0.248 -0.41156,-0.452 -0.36798,-0.331 -0.36697,-0.246 -0.36695,-0.205 -0.41461,-0.042 -0.41359,0 0.09021,0.247 -0.25139,0.308 0.23012,0.146 0.29802,0.267 0.27573,0.229 0.4146,0.039 -0.82718,0.125 -0.69033,0 -0.55246,-0.085 -0.36595,-0.04 0.09224,0.205 0,0.208 -0.32438,0.165 -0.27066,0.04 0.45719,0.29 0.64267,0.165 0.46023,-0.083 0.32134,-0.166 0.31932,-0.082 0.37,0.042 -0.1855,0.4119 -0.41361,0.2481 -0.5038,0.248 -0.55247,0 0.04765,0.37 -0.04765,0.33 0.46124,0 0.31932,0 0.41561,-0.125 0.41258,-0.164 0.59808,-0.164 -0.27572,0.534 -0.27573,0.331 -0.27573,0.247 0.04562,0.368 -0.13989,0.29 -0.22911,0.166 0.55248,0.039 0.50584,-0.08 0.36797,-0.291 0.32134,-0.453 0.27674,-0.452 0.32034,-0.33 0.55145,0.165 0.73696,0.494 0.50381,0.576 0.22808,0.66 -0.0446,1.032 -0.41055,0.246 -0.64573,0.454 -0.50685,0.413 -0.04358,0.166 -0.27776,0.04 -0.8282,0 -0.77953,0.038 -0.4146,-0.285 -0.2281,-0.662 -0.04561,-0.452 0.13685,-0.289 0.41561,0.082 0.36596,0.167 -0.09124,-0.249 -0.36797,-0.372 -0.23011,-0.082 -0.68932,0 -0.6437,-0.123 -0.45921,-0.124 -0.2291,-0.328 -0.22808,-0.166 0.31931,-0.29 0.36798,-0.244 -0.55044,-0.124 -0.59809,0 -0.82616,0.33 0.22808,-0.247 0.55145,-0.415 0.64472,-0.163 -0.46022,-0.083 -0.46022,-0.04 -0.50381,0 -0.41561,0.123 -0.64168,0.288 0.31932,-0.288 0.64369,-0.3701 0.50685,-0.2469 -0.64167,-0.042 -0.82819,0.165 -0.55044,0.163 -0.55348,-0.081 -0.68932,-0.082 -0.41258,-0.208 -0.41561,0.166 -0.4582,-0.042 -0.27471,-0.039 0.18246,0.411 0.55045,0.288 0.73595,0.329 -0.82719,-0.123 -0.50482,-0.125 -0.41258,-0.038 -0.55246,0 -0.36696,0.081 -0.41563,0.123 -0.04461,0.412 -0.18144,0.246 -0.27877,0.166 -0.27673,0.083 0.13481,0.048 0.32744,0.116 0.55043,0 0.59808,-0.122 0.50584,0 0.27573,0.122 c 0,0 -0.36899,0.205 -0.50584,0.205 -0.13685,0 -0.55146,0.248 -0.55146,0.248 l -0.46021,0.207 -0.27573,0.164 0.18246,0.29 0,0.37 -0.04461,0.288 0.55146,0 0.59809,-0.247 0.4592,-0.328 0.41258,-0.2071 0.32338,-0.0419 -0.23113,0.289 -0.22808,0.413 -0.18449,0.369 0,0.248 -0.18653,0.369 0.23214,0.415 0.09123,0.247 0.6437,-0.247 0.41461,-0.453 0.18348,-0.454 0.13685,-0.412 0.27471,-0.37 0.41461,-0.3721 0.46123,-0.1659 0.64269,-0.039 0.55145,0.082 0.59504,0.247 0.32337,0.248 0.04563,0.452 -0.04563,0.413 0.09124,0.409 -0.18246,0.662 0.04561,0.494 0.18348,0.495 0.27572,0.369 -0.1713,-0.035 -0.93058,0.16 -1.01269,0.742 -0.35176,-0.376 0.14495,0.577 -0.15407,0.748 -0.19058,-0.455 -0.18349,-0.7 -0.36796,-0.124 -0.41158,-0.328 -0.41662,-0.209 0.27675,0.456 0.09224,0.574 0.09326,0.455 -0.27775,-0.742 -0.27473,-0.412 -0.27572,-0.331 -0.32235,-0.164 0.18551,0.454 0.13684,0.619 -0.32235,-0.413 -0.32135,-0.454 -0.41156,-0.372 -0.37,-0.247 -0.32033,-0.123 0.2291,0.37 0.23213,0.413 0.27168,0.454 -0.59505,-0.537 -0.50482,-0.453 -0.46225,-0.247 -0.45921,-0.164 0.13888,0.411 0.13889,0.415 0.13684,0.328 -0.50584,-0.371 -0.45819,-0.164 -0.36899,-0.042 -0.36696,-0.247 -0.18348,-0.371 -0.13787,-0.412 -0.09225,-0.413 -0.09223,-0.368 -0.09124,-0.353 -0.09326,-0.186 -0.45718,0.248 -0.23011,-0.082 -0.13787,0.536 0,0.33 0.18247,0.493 -0.32033,0 -0.32236,-0.123 -0.27572,-0.164 -0.32134,-0.206 -0.23114,-0.043 -0.0446,0.206 -0.13888,0.207 -0.04358,0 -0.37,0.165 0.37,0.33 0.59504,0.163 0.52611,0.208 0.3477,0.205 0.46022,0.411 -0.6437,-0.038 -0.64471,0.038 -0.59708,0.043 -0.55145,0.041 -0.18449,0.248 -0.04461,0 -0.50583,0.039 0.46225,0.412 0.59504,0.207 0.50483,0 0.41459,-0.124 0.50585,-0.083 0.36696,0.0439 -0.27674,0.2671 -0.34264,0.369 -0.30005,0.351 0,0.29 -0.18348,0.37 0.13685,0.578 -0.08921,0.287 0.50381,-0.166 0.36798,-0.285 0.13583,-0.372 0.23215,-0.456 0.41257,-0.45 0.41358,-0.125 0.5981,0.04 1.00964,0.579 0.46225,0.328 0.64168,0.25 0.82616,0.2849 0.29498,0.0631 0.34872,0.063 -0.96504,0.123 0.4146,0.248 0.22909,0.287 -0.36796,-0.122 -0.32135,-0.208 -0.4592,-0.082 -0.55349,0 -0.87178,0.249 0.64471,0.163 0.50482,0.289 0.09124,0.33 -0.45718,-0.206 -0.41562,-0.166 -0.4146,-0.083 -0.36393,-0.04 -0.87584,0.165 -0.41358,0.124 0.59706,0.165 0.50686,0.121 0.27573,0.332 -0.46022,-0.166 -0.50585,-0.123 -0.46123,-0.043 -0.45819,0.085 -0.50482,0.206 0.46022,0.041 0.32033,0.082 0.32235,0.207 0,0.164 -0.50481,-0.123 -0.59809,-0.041 -0.32236,0.041 -0.36696,0.042 -0.46023,0.205 0.13888,0.206 -0.04561,0.369 0.45819,0 0.32033,0 0.50787,0 0.41359,0.085 -0.09225,0.163 -0.50482,0.166 -0.46022,0.123 -0.36798,0.165 -0.36798,0.082 0.13888,0.248 0.0446,0.411 -0.22706,0.29 0.04156,0.022 0.27776,0.143 0.50583,0.082 0.32135,-0.165 0.23112,-0.288 0.18145,-0.248 0.46225,-0.204 0.36494,-0.043 0,0.287 0,0.332 -0.04562,0.287 -0.1845,0.371 -0.27268,0.166 0.41257,0.288 -0.04764,0.453 0.32338,-0.043 0.41358,-0.245 0.32236,-0.331 0.1855,-0.122 0.09023,0.37 0.04359,0.247 0.23011,0.206 0.23111,0.206 0.41158,0.165 0.04865,0.329 0,0.207 0.41359,-0.289 0.27573,-0.329 0,-0.414 -0.23112,-0.41 -0.4582,-0.413 -0.27674,-0.204 -0.04663,-0.371 0.09123,-0.456 0.37102,-0.451 0.7329,-0.454 0.59809,-0.329 0.87178,-0.331 0.82617,-0.329 0.92146,-0.205 0.67716,-0.115 0.09629,-0.011 -0.49875,0.207 -0.64267,0.33 -0.50483,0.33 -0.27674,0.309 -0.18247,0.393 0.50381,-0.126 0.64371,-0.166 0.73493,0 0.36797,0 -0.32033,0.208 -0.50685,0.205 -0.32236,0.33 -0.22808,0.37 -0.27775,0.454 0.94173,-0.163 0.39331,-0.124 0.45819,-0.041 0.46023,0.246 0.4592,0.536 0.01622,0.143 0.03042,0.228 -0.04664,0.245 -0.06995,0.187 -0.11353,0.145 -0.36797,0.038 -0.09326,0.249 0.04562,0.209 0.32438,0.122 0.41055,0 0.64472,-0.083 0.41054,0 0.55551,0 0.64067,0.083 0.46225,0.162 0.32032,0.25 0.09124,0.494 -0.18247,0.454 -0.32135,0.246 -0.55145,0.123 -0.6437,-0.08 -0.55247,-0.082 -0.50482,-0.083 -0.55145,-0.042 -0.41258,0 -0.32337,0.081 -0.18348,0.249 -0.04461,0.246 0,0.166 -0.04663,0.124 -0.22808,0.164 0,0.247 0.27471,0.206 0.41157,0 0.55247,0.084 0.36898,0.124 0.41257,0.205 0.32135,0.371 c 0,0 0.04561,0.123 0.27573,0.205 0.23011,0.083 1.10189,0.083 1.28638,0.124 0.1845,0.042 -0.0446,0.042 -0.0446,0.042 l 0.55247,0 0.2737,-0.042 0.8282,0.866 0.04561,-1.114 0.27472,-0.124 0.73494,-0.123 -0.46023,-0.247 0.50686,-0.123 0.41156,0.084 -0.18146,-0.372 -0.46225,-0.249 0.32439,-0.164 0.64471,-0.042 0.31932,0 -0.27472,-0.287 -0.41359,-0.207 -0.09326,-0.123 0.50685,-0.124 0.36696,0.04 0.32135,0 -0.0892,-0.245 -0.23215,-0.124 -0.46021,-0.042 0.22909,-0.121 0.50685,-0.167 0.32033,0.124 0.3254,0.164 0.2737,0.331 0.22809,0.248 0.13887,-0.455 0,-0.495 -0.16119,-0.307 -0.27369,-0.331 -0.53118,-0.147 -0.59606,0 -0.59606,0.21 -0.27775,0.122 0.96606,-0.536 0.41359,-0.08 0.76028,0.059 -0.21085,-0.308 -0.31932,-0.165 -0.59707,-0.082 -0.41358,-0.042 -0.18551,0.124 -0.10137,0.05 -0.07502,0.147 -0.24228,0.107 0.19059,-0.288 0.5038,-0.387 0.82921,-0.248 -0.27674,-0.411 -1.19515,0.165 0.36696,-0.411 0.36797,-0.248 0.46022,-0.165 -0.55247,-0.249 -0.5038,-0.041 -0.59911,0.208 -0.55044,0.495 0.09225,-0.331 0.27573,-0.496 0.45819,-0.329 0.73697,-0.327 0.45919,-0.084 -0.8961,-0.124 -0.57579,0.124 -0.55044,0.164 -0.55145,0.332 0.13888,-0.373 0.32033,-0.37 0.64268,-0.411 0.64371,-0.167 0.4592,-0.083 -0.92044,-0.246 -0.55044,0 -0.91942,0.084" />
        <g
           transform="matrix(1.013702,0,0,-1,-4.251984,420.9449)"
           id="g2890">
          <path
             id="path2892"
             style="fill:none;stroke:#231f20;stroke-width:0.087;stroke-linecap:butt;stroke-linejoin:miter;stroke-miterlimit:10;stroke-opacity:1;stroke-dasharray:none"
             d="m 86.45801,-339.626 0.365,0.415 0.27099,0.329 0.27101,0.494 0.36299,0.496 0.725,0.411 0.636,0.331 0.81801,0.328 0.63199,0.165 0.634,0.165 0.544,0.164 0.724,0.496 0.453,0.4929 0.27301,0.4941 0.181,0.4959 0.27399,0.4131 0.272,0.245 0.728,0.165 0.542,0 0.36302,-0.329 0.17798,-0.577 -0.17798,-0.659 -0.54702,-0.661 -0.63199,-0.657 -1,-0.741 -0.997,-0.742 -1.087,-0.826 -0.541,-0.658 -0.36701,-0.662 -0.27099,-0.658 0,-0.576 0.09199,-0.578 0.179,-0.576 0.274,-0.494 0.543,-0.332 0.544,-0.163 0.724,0 0.65801,0.103 0.70399,0.226 0.819,0.412 0.63101,0.411 0.63299,0.827 0.637,0.576 0.45301,0.658 0.45099,0.576 0.639,0.496 0.542,0.331 0.72401,0.3299 0.45299,0 0.454,-0.1639 0,0.41 -0.271,0.331 -0.457,0.163 -0.53899,0 -0.456,-0.413 0.54599,0.661 0.09001,0.577 0,0.495 0,0.412 0.546,0.329 0.54099,-0.164 0.367,-0.329 0.271,-0.661 0,-0.495 0.271,0.332 0.267,0.493 -0.088,0.331 -0.271,0.329 0.271,-0.329 0.455,-0.496 0,-0.66 0,-0.575 -0.272,-0.5771 0.541,0.6571 0.18,0.577 0,0.578 -0.27,0.577 -0.179,0.412 -0.546,0.3289 -0.542,0.3292 0.633,-0.0811 0.545,-0.2481 -0.545,0.4941 -0.543,0.083 -0.545,0.247 -0.728,-0.082 -0.81299,-0.165 -0.542,-0.411 -0.63701,-0.414 -0.26999,-0.41 -0.18301,-0.578 0,-0.575 0,-0.415 -0.45399,-0.082 -0.45201,-0.33 -0.18,-0.326 0.08901,-0.662 0.27099,0.4959 0.365,0.3271 0.454,0 0.18,-0.411 -0.08999,-0.2069 -0.18301,-0.2872 -0.40899,-0.4129 -0.405,-0.372 -0.36601,-0.451 -0.45099,-0.536 -0.59001,-0.5771 -0.682,-0.6189 -0.906,-0.368 -0.676,-0.126 -0.52499,0.042 -0.33901,0.204 -0.225,0.413 -0.136,0.495 0.136,0.495 0.361,0.4949 0.362,0.4101 0.27401,0.372 0.635,0.618 0.49799,0.4959 0.635,0.5771 0.498,0.411 0.363,0.373 0.49701,0.4929 0.27099,0.4931 0.40801,0.535 0.13599,0.496 0.138,0.412 0.04401,0.496 -0.08901,0.411 -0.183,0.496 -0.316,0.41 -0.58899,0.165 -0.79501,0.123 -0.837,-0.164 0.13699,0.783 0.13302,0.535 0,0.4549 -0.041,0.4921 0.22499,0.167 0.318,-0.207 0.27,-0.164 0,0.701 -0.09,0.369 -0.273,0.247 -0.27099,0.331 -0.81601,0.123 0.54499,-0.041 0.59001,-0.082 -0.31899,0.412 -0.362,0.369 -0.501,0.124 -0.541,0.085 -0.456,0.038 c 0.318,0.084 0.773,0.168 0.773,0.168 l 0.408,0.0399 0.22299,-0.0829 -0.721,0.3701 -0.864,0.0829 -0.40699,0 -0.541,0.0829 0.405,0.1231 0.95399,0.083 0.453,-0.04 -0.275,0.371 -0.544,0.164 -0.45199,0.123 c 0,0 -0.22701,0.041 -0.36,0 -0.139,-0.041 -0.77301,-0.123 -0.77301,-0.123 l 0.408,0.289 0.815,0.122 -0.541,0.33 -0.456,0.043 -0.5,0 -0.40799,-0.083 -0.362,0.123 -0.45101,0.125 -0.45199,0.082 -0.41201,0.248 -0.40599,0.452 -0.363,0.331 -0.36201,0.246 -0.36199,0.205 -0.40901,0.042 -0.40799,0 0.08899,-0.247 -0.248,-0.308 0.22701,-0.146 0.294,-0.267 0.27199,-0.229 0.40901,-0.039 -0.81601,-0.125 -0.681,0 -0.54499,0.085 -0.361,0.04 0.09099,-0.205 0,-0.208 -0.32,-0.165 -0.267,-0.04 0.45101,-0.29 0.63398,-0.165 0.45401,0.083 0.31701,0.166 0.31499,0.082 0.36501,-0.042 -0.183,-0.412 -0.40801,-0.248 -0.497,-0.2481 -0.545,0 0.047,-0.3699 -0.047,-0.33 0.45501,0 0.315,0 0.40999,0.125 0.407,0.164 0.59001,0.164 -0.27201,-0.5341 -0.27199,-0.3309 -0.27201,-0.2471 0.04501,-0.3679 -0.13801,-0.29 -0.226,-0.166 0.545,-0.039 0.499,0.08 0.363,0.291 0.317,0.453 0.273,0.452 0.31601,0.33 0.544,-0.1651 0.72699,-0.4939 0.497,-0.576 0.225,-0.66 -0.044,-1.032 -0.40499,-0.246 -0.63701,-0.454 -0.5,-0.4131 -0.04299,-0.1659 -0.27401,-0.04 -0.817,0 -0.769,-0.038 -0.40899,0.285 -0.22501,0.6619 -0.045,0.4521 0.13501,0.289 0.40999,-0.082 0.361,-0.167 -0.08999,0.249 -0.363,0.372 -0.227,0.082 -0.68001,0 -0.63499,0.123 -0.45301,0.124 -0.226,0.328 -0.22499,0.166 0.31498,0.29 0.36301,0.244 -0.543,0.1239 -0.59,0 -0.815,-0.3299 0.225,0.247 0.544,0.415 0.636,0.163 -0.45399,0.0829 -0.45401,0.0401 -0.497,0 -0.40999,-0.123 -0.63301,-0.288 0.31501,0.288 0.63499,0.3701 0.5,0.2469 -0.63299,0.042 -0.81701,-0.165 -0.543,-0.163 -0.54599,0.081 -0.68,0.082 -0.40701,0.208 -0.40999,-0.1661 -0.45201,0.0421 -0.27099,0.039 0.18,-0.411 0.543,-0.288 0.726,-0.329 -0.81601,0.123 -0.49799,0.125 -0.40701,0.038 -0.545,0 -0.362,-0.081 -0.41,-0.123 -0.04401,-0.412 -0.17899,-0.246 -0.275,-0.166 -0.27299,-0.083 0.13299,-0.048 0.32301,-0.116 0.543,0 0.58999,0.122 0.499,0 0.27201,-0.122 c 0,0 -0.364,-0.205 -0.499,-0.205 -0.13501,0 -0.54401,-0.248 -0.54401,-0.248 l -0.45399,-0.207 -0.27201,-0.164 0.18,-0.29 0,-0.37 -0.04401,-0.288 0.54401,0 0.59001,0.247 0.45299,0.328 0.40701,0.207 0.319,0.042 -0.22801,-0.289 -0.225,-0.413 -0.182,-0.369 0,-0.2481 -0.18399,-0.3689 0.22899,-0.415 0.09001,-0.247 0.63499,0.247 0.409,0.453 0.181,0.454 0.13501,0.412 0.27099,0.37 0.40901,0.372 0.45499,0.166 0.634,0.039 0.544,-0.082 0.587,-0.247 0.319,-0.248 0.04501,-0.4521 -0.04501,-0.4129 0.09,-0.409 -0.18,-0.662 0.045,-0.494 0.18101,-0.495 0.27199,-0.369 -0.16899,0.035 -0.918,-0.16 -0.999,-0.742 -0.347,0.376 0.14299,-0.577 -0.152,-0.748 -0.18799,0.4549 -0.18101,0.7001 -0.36299,0.124 -0.40601,0.328 -0.411,0.209 0.27301,-0.456 0.091,-0.574 0.09199,-0.455 -0.27399,0.742 -0.27101,0.412 -0.272,0.331 -0.318,0.164 0.18301,-0.454 0.13499,-0.619 -0.318,0.413 -0.31699,0.454 -0.40601,0.372 -0.365,0.247 -0.316,0.123 0.22601,-0.37 0.22899,-0.413 0.268,-0.454 -0.587,0.537 -0.498,0.453 -0.45599,0.247 -0.45301,0.164 0.13701,-0.411 0.137,-0.415 0.13499,-0.328 -0.499,0.371 -0.452,0.164 -0.36399,0.042 -0.362,0.247 -0.181,0.371 -0.13601,0.412 -0.091,0.413 -0.09099,0.368 -0.09001,0.353 -0.09199,0.186 -0.45101,-0.2481 -0.22699,0.0821 -0.13601,-0.536 0,-0.33 0.18,-0.493 -0.316,0 -0.318,0.123 -0.27199,0.164 -0.31701,0.206 -0.228,0.043 -0.044,-0.206 -0.137,-0.207 -0.043,0 -0.36499,-0.165 0.36499,-0.33 0.58701,-0.163 0.51899,-0.208 0.34301,-0.205 0.45399,-0.411 -0.63499,0.038 -0.63601,-0.038 -0.589,-0.043 -0.544,-0.041 -0.182,-0.248 -0.044,0 -0.499,-0.039 0.456,-0.412 0.587,-0.207 0.498,0 0.409,0.124 0.49901,0.083 0.36199,-0.0439 -0.27299,-0.2671 -0.33801,-0.3691 -0.296,-0.3509 0,-0.29 -0.181,-0.37 0.135,-0.578 -0.088,-0.287 0.497,0.166 0.363,0.285 0.134,0.372 0.22901,0.456 0.407,0.45 0.40799,0.125 0.59001,-0.04 0.99599,-0.579 0.456,-0.3281 0.633,-0.25 0.81501,-0.2849 0.29099,-0.063 0.344,-0.063 -0.95199,-0.123 0.40899,-0.248 0.226,-0.287 -0.36299,0.122 -0.31701,0.208 -0.453,0.082 -0.54599,0 -0.86,-0.2491 0.63599,-0.1629 0.498,-0.289 0.09001,-0.33 -0.45101,0.206 -0.40999,0.166 -0.40901,0.083 -0.359,0.04 -0.864,-0.165 -0.40799,-0.124 0.58899,-0.165 0.5,-0.121 0.272,-0.332 -0.45399,0.166 -0.49901,0.123 -0.455,0.043 -0.452,-0.085 -0.498,-0.206 0.45401,-0.041 0.316,-0.0821 0.31799,-0.2069 0,-0.164 -0.49799,0.123 -0.59001,0.041 -0.318,-0.041 -0.362,-0.042 -0.454,-0.2051 0.137,-0.2059 -0.04499,-0.369 0.452,0 0.31599,0 0.501,0 0.40801,-0.085 -0.09101,-0.1631 -0.49799,-0.1659 -0.454,-0.123 -0.363,-0.165 -0.36301,-0.082 0.137,-0.248 0.044,-0.411 -0.224,-0.29 0.041,-0.022 0.274,-0.143 0.499,-0.082 0.31701,0.165 0.22799,0.288 0.179,0.2479 0.456,0.2041 0.36,0.043 0,-0.287 0,-0.332 -0.04499,-0.287 -0.18201,-0.371 -0.269,-0.166 0.407,-0.288 -0.04699,-0.453 0.319,0.043 0.40799,0.245 0.318,0.3309 0.183,0.1221 0.089,-0.37 0.043,-0.247 0.227,-0.206 0.228,-0.206 0.40601,-0.165 0.04799,-0.3291 0,-0.2069 0.40801,0.289 0.27199,0.329 0,0.414 -0.22799,0.41 -0.45201,0.413 -0.27299,0.204 -0.04601,0.371 0.09,0.456 0.366,0.451 0.723,0.454 0.59001,0.329 0.86,0.331 0.81499,0.3289 0.909,0.2051 0.66801,0.115 0.095,0.011 -0.49201,-0.207 -0.63399,-0.33 -0.49801,-0.33 -0.273,-0.309 -0.18,-0.393 0.497,0.126 0.63501,0.166 0.72499,0 0.363,0 -0.316,-0.208 -0.5,-0.205 -0.318,-0.33 -0.225,-0.37 -0.27399,-0.454 0.929,0.163 0.38799,0.124 0.452,0.041 0.45401,-0.246 0.45299,-0.536 0.016,-0.143 0.03001,-0.228 -0.04601,-0.2451 -0.069,-0.1869 -0.112,-0.145 -0.363,-0.0381 -0.092,-0.2489 0.04501,-0.209 0.32,-0.122 0.40499,0 0.63601,0.083 0.405,0 0.54799,0 0.63201,-0.083 0.456,-0.162 0.31599,-0.25 0.09001,-0.494 -0.18001,-0.454 -0.317,-0.246 -0.544,-0.123 -0.635,0.0799 -0.545,0.0821 -0.498,0.083 -0.544,0.042 -0.40699,0 -0.319,-0.081 -0.181,-0.249 -0.044,-0.246 0,-0.166 -0.04601,-0.124 -0.225,-0.1641 0,-0.2469 0.27101,-0.206 0.406,0 0.54499,-0.084 0.364,-0.124 0.407,-0.205 0.317,-0.371 c 0,0 0.045,-0.123 0.27201,-0.205 0.22699,-0.083 1.08699,-0.083 1.26898,-0.124 0.18201,-0.042 -0.04399,-0.042 -0.04399,-0.042 l 0.545,0 0.27001,0.042 0.817,-0.866 0.045,1.1139 0.27099,0.1241 0.72501,0.123 -0.454,0.247 0.5,0.123 0.40599,-0.084 -0.179,0.372 -0.456,0.249 0.32,0.1639 0.636,0.0421 0.31501,0 -0.27101,0.287 -0.408,0.207 -0.092,0.123 0.5,0.124 0.362,-0.04 0.317,0 -0.08799,0.245 -0.22901,0.124 -0.45399,0.042 0.22599,0.121 0.5,0.167 0.31601,-0.124 0.321,-0.164 0.26999,-0.3311 0.22501,-0.2479 0.13699,0.455 0,0.495 -0.159,0.307 -0.27,0.331 -0.52399,0.147 -0.58801,0 -0.588,-0.21 -0.274,-0.122 0.953,0.536 0.408,0.08 0.75,-0.059 -0.208,0.308 -0.31499,0.165 -0.58901,0.082 -0.40799,0.042 -0.183,-0.124 -0.1,-0.0501 -0.07401,-0.1469 -0.239,-0.107 0.18801,0.288 0.49699,0.387 0.818,0.248 -0.27299,0.411 -1.179,-0.165 0.362,0.411 0.363,0.248 0.454,0.165 -0.54501,0.249 -0.49699,0.041 -0.59101,-0.208 -0.54299,-0.495 0.09099,0.331 0.272,0.496 0.452,0.329 0.72701,0.327 0.45299,0.084 -0.88399,0.124 -0.56801,-0.124 -0.54299,-0.164 -0.544,-0.332 0.137,0.373 0.31599,0.37 0.634,0.411 0.63501,0.167 0.45299,0.083 -0.908,0.2459 -0.54299,0 -0.907,-0.0839" />
        </g>
        <path
           id="path2894"
           style="fill:#231f20;fill-opacity:1;fill-rule:nonzero;stroke:none"
           d="m 79.25581,766.4619 0.13787,-0.412 0.18651,0.412" />
        <g
           transform="matrix(1.013702,0,0,-1,-4.251984,420.9449)"
           id="g2896">
          <path
             id="path2898"
             style="fill:none;stroke:#231f20;stroke-width:0.043;stroke-linecap:butt;stroke-linejoin:miter;stroke-miterlimit:10;stroke-opacity:1;stroke-dasharray:none"
             d="m 82.37901,-345.517 0.136,0.412 0.184,-0.412" />
        </g>
        <path
           id="path2900"
           style="fill:#231f20;fill-opacity:1;fill-rule:nonzero;stroke:none"
           d="m 79.96844,766.5039 0.1622,-0.412 0.13685,0.451" />
        <g
           transform="matrix(1.013702,0,0,-1,-4.251984,420.9449)"
           id="g2902">
          <path
             id="path2904"
             style="fill:none;stroke:#231f20;stroke-width:0.043;stroke-linecap:butt;stroke-linejoin:miter;stroke-miterlimit:10;stroke-opacity:1;stroke-dasharray:none"
             d="m 83.082,-345.559 0.16,0.412 0.13501,-0.451" />
        </g>
        <path
           id="path2906"
           style="fill:#231f20;fill-opacity:1;fill-rule:nonzero;stroke:none"
           d="m 80.74899,766.6259 0.11455,-0.452 0.25444,0.495" />
        <g
           transform="matrix(1.013702,0,0,-1,-4.251984,420.9449)"
           id="g2908">
          <path
             id="path2910"
             style="fill:none;stroke:#231f20;stroke-width:0.043;stroke-linecap:butt;stroke-linejoin:miter;stroke-miterlimit:10;stroke-opacity:1;stroke-dasharray:none"
             d="m 83.85201,-345.681 0.11299,0.452 0.251,-0.4951" />
        </g>
        <path
           id="path2912"
           style="fill:#231f20;fill-opacity:1;fill-rule:nonzero;stroke:none"
           d="m 81.48494,766.7089 0.11556,-0.454 0.13787,0.414" />
        <g
           transform="matrix(1.013702,0,0,-1,-4.251984,420.9449)"
           id="g2914">
          <path
             id="path2916"
             style="fill:none;stroke:#231f20;stroke-width:0.043;stroke-linecap:butt;stroke-linejoin:miter;stroke-miterlimit:10;stroke-opacity:1;stroke-dasharray:none"
             d="m 84.578,-345.764 0.114,0.454 0.136,-0.4141" />
        </g>
        <path
           id="path2918"
           style="fill:#231f20;fill-opacity:1;fill-rule:nonzero;stroke:none"
           d="m 79.32373,765.0199 0.06995,0.289 0.22909,-0.289" />
        <g
           transform="matrix(1.013702,0,0,-1,-4.251984,420.9449)"
           id="g2920">
          <path
             id="path2922"
             style="fill:none;stroke:#231f20;stroke-width:0.043;stroke-linecap:butt;stroke-linejoin:miter;stroke-miterlimit:10;stroke-opacity:1;stroke-dasharray:none"
             d="m 82.44601,-344.075 0.069,-0.289 0.22599,0.289" />
        </g>
        <path
           id="path2924"
           style="fill:#231f20;fill-opacity:1;fill-rule:nonzero;stroke:none"
           d="m 80.03737,764.9369 0.13888,0.372 0.27573,-0.372" />
        <g
           transform="matrix(1.013702,0,0,-1,-4.251984,420.9449)"
           id="g2926">
          <path
             id="path2928"
             style="fill:none;stroke:#231f20;stroke-width:0.043;stroke-linecap:butt;stroke-linejoin:miter;stroke-miterlimit:10;stroke-opacity:1;stroke-dasharray:none"
             d="m 83.15,-343.992 0.137,-0.372 0.27201,0.372" />
        </g>
        <path
           id="path2930"
           style="fill:#231f20;fill-opacity:1;fill-rule:nonzero;stroke:none"
           d="m 81.00546,764.9369 0.06792,0.412 0.34262,-0.371" />
        <g
           transform="matrix(1.013702,0,0,-1,-4.251984,420.9449)"
           id="g2932">
          <path
             id="path2934"
             style="fill:none;stroke:#231f20;stroke-width:0.043;stroke-linecap:butt;stroke-linejoin:miter;stroke-miterlimit:10;stroke-opacity:1;stroke-dasharray:none"
             d="m 84.105,-343.992 0.067,-0.412 0.33799,0.371" />
        </g>
        <path
           id="path2936"
           style="fill:#231f20;fill-opacity:1;fill-rule:nonzero;stroke:none"
           d="m 81.69275,765.3489 0.02129,-0.329 0.27775,0.082 -0.29904,0.247 z" />
        <g
           transform="matrix(1.013702,0,0,-1,-4.251984,420.9449)"
           id="g2938">
          <path
             id="path2940"
             style="fill:none;stroke:#231f20;stroke-width:0.043;stroke-linecap:butt;stroke-linejoin:miter;stroke-miterlimit:10;stroke-opacity:1;stroke-dasharray:none"
             d="m 84.783,-344.404 0.021,0.329 0.274,-0.082 -0.295,-0.247 z" />
        </g>
        <path
           id="path2942"
           style="fill:#ee293d;fill-opacity:1;fill-rule:nonzero;stroke:none"
           d="m 84.93457,764.7359 -0.25647,0.162 0.09226,-0.292 0.23111,-0.328 0.18348,-0.327 -0.41459,0.119 -0.41259,0.332 -0.18348,0.287 -0.18348,0.371 0.16018,-0.636 -0.02333,-0.29 -0.07095,-0.227 -0.15915,-0.266 -0.48354,-0.353 0.04662,0.331 0.04664,0.433 -0.0223,0.35 -0.13888,0.576 0.04461,-0.412 -0.04461,-0.496 -0.13989,-0.369 -0.13584,-0.289 -0.43792,-0.452 0.06894,0.699 0,0.372 -0.04461,0.329 -0.18348,-0.867 -0.27471,-0.575 -0.18551,-0.246 -0.48049,-0.351 0.02128,0.268 0.09124,0.411 0.09326,0.454 0.04561,0.288 -0.32133,-0.658 -0.27574,-0.579 -0.32337,-0.288 -0.36696,-0.328 0.04663,0.411 0.13482,0.577 0.04765,0.411 -0.32134,-0.37 -0.50585,-0.537 -0.3183,-0.244 0.13482,0.452 0.09428,0.329 0.18247,0.453 0.13888,0.371 -0.18653,-0.123 -0.27269,-0.165 -0.18449,0 0.01622,0.143" />
        <g
           transform="matrix(1.013702,0,0,-1,-4.251984,420.9449)"
           id="g2944">
          <path
             id="path2946"
             style="fill:none;stroke:#231f20;stroke-width:0.087;stroke-linecap:butt;stroke-linejoin:miter;stroke-miterlimit:10;stroke-opacity:1;stroke-dasharray:none"
             d="m 87.981,-343.791 -0.253,-0.162 0.09101,0.292 0.22799,0.328 0.181,0.327 -0.40899,-0.1191 -0.40701,-0.3319 -0.181,-0.287 -0.181,-0.3711 0.15801,0.6361 -0.023,0.29 -0.07,0.227 -0.157,0.266 -0.47701,0.353 0.046,-0.331 0.04601,-0.433 -0.02201,-0.35 -0.13699,-0.576 0.044,0.412 -0.044,0.4959 -0.13801,0.3691 -0.13399,0.289 -0.43201,0.452 0.06801,-0.6991 0,-0.3719 -0.04401,-0.329 -0.181,0.867 -0.27099,0.575 -0.183,0.246 -0.47399,0.351 0.02098,-0.268 0.09001,-0.411 0.09199,-0.454 0.045,-0.2881 -0.31699,0.6581 -0.27201,0.579 -0.319,0.288 -0.362,0.328 0.046,-0.411 0.13301,-0.577 0.04699,-0.411 -0.31699,0.37 -0.49901,0.537 -0.31399,0.244 0.13299,-0.452 0.093,-0.329 0.18,-0.453 0.137,-0.3711 -0.18399,0.1231 -0.26901,0.165 -0.182,0 0.016,-0.143" />
        </g>
        <path
           id="path2948"
           style="fill:#231f20;fill-opacity:1;fill-rule:nonzero;stroke:none"
           d="m 81.18691,768.3999 0.18247,-0.166 0.32337,-0.081 0.36797,-0.084 0.32135,-0.164 -0.18348,-0.166 -0.50584,-0.041 -0.41663,-0.042 -0.04258,-0.328" />
        <g
           transform="matrix(1.013702,0,0,-1,-4.251984,420.9449)"
           id="g2950">
          <path
             id="path2952"
             style="fill:none;stroke:#231f20;stroke-width:0.043;stroke-linecap:butt;stroke-linejoin:miter;stroke-miterlimit:10;stroke-opacity:1;stroke-dasharray:none"
             d="m 84.284,-347.455 0.18,0.166 0.319,0.081 0.363,0.084 0.31701,0.164 -0.181,0.166 -0.49901,0.041 -0.411,0.042 -0.042,0.328" />
        </g>
        <path
           id="path2954"
           style="fill:#231f20;fill-opacity:1;fill-rule:nonzero;stroke:none"
           d="m 82.2442,767.9869 -0.78155,0.124 -0.09327,-0.124 0,-0.166 0.11556,-0.143 0.43589,0.04 0.27776,0.021 0.04561,0.248 -0.18348,0.082 0.18348,-0.082 z" />
        <path
           id="path2956"
           style="fill:#231f20;fill-opacity:1;fill-rule:nonzero;stroke:none"
           d="m 83.43835,769.2649 -0.23214,-0.331 0.27877,-0.082 -0.04663,0.413 z" />
        <g
           transform="matrix(1.013702,0,0,-1,-4.251984,420.9449)"
           id="g2958">
          <path
             id="path2960"
             style="fill:none;stroke:#231f20;stroke-width:0.043;stroke-linecap:butt;stroke-linejoin:miter;stroke-miterlimit:10;stroke-opacity:1;stroke-dasharray:none"
             d="m 86.505,-348.32 -0.229,0.331 0.275,0.082 -0.046,-0.413 z" />
        </g>
        <path
           id="path2962"
           style="fill:#ee293d;fill-opacity:1;fill-rule:nonzero;stroke:none"
           d="m 79.82247,758.3319 0,-0.657 -0.09327,-0.496 -0.29802,-0.536 -0.43691,-0.536 -0.32134,-0.289" />
        <g
           transform="matrix(1.013702,0,0,-1,-4.251984,420.9449)"
           id="g2964">
          <path
             id="path2966"
             style="fill:none;stroke:#231f20;stroke-width:0.087;stroke-linecap:butt;stroke-linejoin:miter;stroke-miterlimit:10;stroke-opacity:1;stroke-dasharray:none"
             d="m 82.938,-337.387 0,0.657 -0.092,0.496 -0.294,0.5359 -0.431,0.5361 -0.317,0.289" />
        </g>
        <path
           id="path2968"
           style="fill:#ee293d;fill-opacity:1;fill-rule:nonzero;stroke:none"
           d="m 80.76825,754.9159 0.83225,-0.088 1.92908,0.29 1.24078,0.248 0.87583,0 0.36392,-0.371 0,-0.576 -0.18247,-0.617 -0.2291,-0.621 0.13584,-0.493" />
        <g
           transform="matrix(1.013702,0,0,-1,-4.251984,420.9449)"
           id="g2970">
          <path
             id="path2972"
             style="fill:none;stroke:#231f20;stroke-width:0.087;stroke-linecap:butt;stroke-linejoin:miter;stroke-miterlimit:10;stroke-opacity:1;stroke-dasharray:none"
             d="m 83.871,-333.971 0.821,0.088 1.903,-0.29 1.22401,-0.248 0.864,0 0.359,0.371 0,0.5759 -0.18,0.6171 -0.22601,0.621 0.134,0.493" />
        </g>
        <path
           id="path2974"
           style="fill:#ee293d;fill-opacity:1;fill-rule:nonzero;stroke:none"
           d="m 84.35777,755.1709 -0.23011,-0.29 -0.41257,-0.33 -0.41461,-0.123 -0.36797,-0.124 0.59707,-0.163 0.78055,-0.042 0.8282,-0.123 0.78663,0.156" />
        <g
           transform="matrix(1.013702,0,0,-1,-4.251984,420.9449)"
           id="g2976">
          <path
             id="path2978"
             style="fill:none;stroke:#231f20;stroke-width:0.087;stroke-linecap:butt;stroke-linejoin:miter;stroke-miterlimit:10;stroke-opacity:1;stroke-dasharray:none"
             d="m 87.412,-334.226 -0.22699,0.29 -0.407,0.33 -0.40901,0.123 -0.363,0.124 0.589,0.163 0.77001,0.042 0.817,0.123 0.776,-0.156" />
        </g>
        <path
           id="path2980"
           style="fill:#231f20;fill-opacity:1;fill-rule:nonzero;stroke:none"
           d="m 85.92496,754.1319 0.04054,0.009" />
        <g
           transform="matrix(1.013702,0,0,-1,-4.251984,420.9449)"
           id="g2982">
          <path
             id="path2984"
             style="fill:none;stroke:#231f20;stroke-width:0.043;stroke-linecap:butt;stroke-linejoin:miter;stroke-miterlimit:10;stroke-opacity:1;stroke-dasharray:none"
             d="m 88.95801,-333.187 0.03999,-0.009" />
        </g>
        <path
           id="path2986"
           style="fill:#f14729;fill-opacity:1;fill-rule:nonzero;stroke:none"
           d="m 81.92083,761.3939 0.73595,-0.578 0.73393,-0.245" />
        <g
           transform="matrix(1.013702,0,0,-1,-4.251984,420.9449)"
           id="g2988">
          <path
             id="path2990"
             style="fill:none;stroke:#231f20;stroke-width:0.087;stroke-linecap:butt;stroke-linejoin:miter;stroke-miterlimit:10;stroke-opacity:1;stroke-dasharray:none"
             d="m 85.008,-340.449 0.726,0.578 0.72401,0.245" />
        </g>
        <path
           id="path2992"
           style="fill:#f14729;fill-opacity:1;fill-rule:nonzero;stroke:none"
           d="m 78.12249,759.9809 -0.9174,-0.782 -0.73696,-0.535 -0.64472,-0.371" />
        <g
           transform="matrix(1.013702,0,0,-1,-4.251984,420.9449)"
           id="g2994">
          <path
             id="path2996"
             style="fill:none;stroke:#231f20;stroke-width:0.043;stroke-linecap:butt;stroke-linejoin:miter;stroke-miterlimit:10;stroke-opacity:1;stroke-dasharray:none"
             d="m 81.261,-339.036 -0.905,0.782 -0.72699,0.5349 -0.63601,0.3711" />
        </g>
        <path
           id="path2998"
           style="fill:#1b4f9c;fill-opacity:1;fill-rule:nonzero;stroke:none"
           d="m 84.01413,778.7109 c 1.08061,-0.016 5.95449,10e-4 5.95449,10e-4 l -0.01724,7.102 -13.98605,0.013 0,-7.115 5.99504,0 c 0,0 0.89713,-1.302 2.05376,-10e-4" />
        <g
           transform="matrix(1.013702,0,0,-1,-4.251984,420.9449)"
           id="g3000">
          <path
             id="path3002"
             style="fill:none;stroke:#231f20;stroke-width:0.09500001;stroke-linecap:butt;stroke-linejoin:miter;stroke-miterlimit:10;stroke-opacity:1;stroke-dasharray:none"
             d="m 87.07301,-357.7661 c 1.066,0.0161 5.874,-9e-4 5.874,-9e-4 l -0.01701,-7.102 -13.797,-0.013 0,7.115 5.914,0 c 0,0 0.88501,1.302 2.02601,9e-4 z" />
        </g>
      </g>
    </g>
    <g
       id="g3004"
       transform="matrix(1.25,0,0,-1.25,217.83716,1397.5022)">
      <g
         clip-path="url(#clipPath3008)"
         id="g3006">
        <g
           transform="matrix(1.013702,0,0,-1,-4.251984,420.9449)"
           id="g3012">
          <path
             id="path3014"
             style="fill:none;stroke:#ffffff;stroke-width:0.88400012;stroke-linecap:butt;stroke-linejoin:miter;stroke-miterlimit:10;stroke-opacity:1;stroke-dasharray:none"
             d="m 62.993,-379.928 c -1.042,35.086 -4.378,45.615 22.83101,58.698 27.21099,-13.083 23.87299,-23.612 22.83299,-58.698 l -45.664,0 z" />
        </g>
        <g
           transform="matrix(1.013702,0,0,-1,-4.251984,420.9449)"
           id="g3016">
          <path
             id="path3018"
             style="fill:none;stroke:#1b4f9c;stroke-width:1.76699996;stroke-linecap:butt;stroke-linejoin:miter;stroke-miterlimit:10;stroke-opacity:1;stroke-dasharray:none"
             d="m 62.05,-380.832 c -1.086,36.219 -4.559,47.184 23.77401,60.808 28.33299,-13.624 24.86099,-24.589 23.77099,-60.808 l -47.545,0 z" />
        </g>
      </g>
    </g>
    <path
       id="path3028"
       style="fill:#1b4f9c;fill-opacity:1;fill-rule:nonzero;stroke:none"
       d="m 292.64142,414.10979 54.60812,31.6575 0.22937,0.12625 c 3.0145,-8.00125 2.96387,-17.9325 2.45187,-31.92 l -0.0494,0.1325 -54.8147,31.77625 -0.019,0.0112 c -3.00689,-7.975 -2.96255,-17.865 -2.45443,-31.77875 l 0.0481,-0.005 z" />
    <path
       id="path3030"
       style="fill:#ee293d;fill-opacity:1;fill-rule:nonzero;stroke:none"
       d="m 349.85978,412.48104 -0.79312,-15.3375 -55.58767,0.0325 -0.63483,15.33749 57.01562,-0.0325 z" />
    <path
       id="path3032"
       style="fill:#ffffff;fill-opacity:1;fill-rule:nonzero;stroke:none"
       d="m 323.89766,410.65479 c -0.28129,0.1775 -0.59049,0.32749 -0.91866,0.44749 l 0.89332,-0.27749 c 2.57354,-0.86251 4.39948,-2.98626 4.39948,-5.47001 0,-3.24749 -3.10954,-5.87749 -6.95274,-5.87749 -3.84066,0 -6.95273,2.63 -6.95273,5.87749 0,2.3875 1.68274,4.44375 4.10423,5.36 0.13812,0.0562 0.27876,0.10251 0.42449,0.14876 l -0.0532,0.01 c -1.34569,-0.67375 -2.24661,-1.91375 -2.24661,-3.33125 0,-2.14 2.05149,-3.875 4.58066,-3.875 2.53173,0 4.58322,1.735 4.58322,3.875 0,1.27625 -0.73242,2.4075 -1.86143,3.1125" />
    <g
       transform="matrix(1.2671275,0,0,1.25,212.52218,871.32103)"
       id="g3034">
      <path
         id="path3036"
         style="fill:none;stroke:#231f20;stroke-width:0.133;stroke-linecap:butt;stroke-linejoin:miter;stroke-miterlimit:10;stroke-opacity:1;stroke-dasharray:none"
         d="m 87.896,-368.533 c -0.22199,0.1419 -0.466,0.2619 -0.72499,0.358 l 0.705,-0.222 c 2.031,-0.69 3.472,-2.389 3.472,-4.376 0,-2.598 -2.45401,-4.702 -5.487,-4.702 -3.03101,0 -5.48701,2.104 -5.48701,4.702 0,1.91 1.328,3.555 3.23901,4.288 0.109,0.045 0.21999,0.082 0.335,0.119 l -0.042,0.008 c -1.06201,-0.539 -1.77301,-1.531 -1.77301,-2.665 0,-1.712 1.61901,-3.1 3.615,-3.1 1.998,0 3.61701,1.388 3.61701,3.1 0,1.021 -0.57801,1.926 -1.46901,2.49 z" />
    </g>
    <g
       transform="matrix(1.2671275,0,0,1.25,212.52218,871.32103)"
       id="g3038">
      <path
         id="path3040"
         style="fill:none;stroke:#231f20;stroke-width:0.221;stroke-linecap:butt;stroke-linejoin:miter;stroke-miterlimit:10;stroke-opacity:1;stroke-dasharray:none"
         d="m 88.23,-368.689 c 1.16301,-0.7071 1.92701,-1.901 1.92701,-3.256 0,-2.169 -1.95601,-3.927 -4.365,-3.927 -2.40901,0 -4.36401,1.758 -4.36401,3.927 0,1.355 0.763,2.5489 1.92301,3.256" />
    </g>
    <path
       id="path3042"
       style="fill:#fff200;fill-opacity:1;fill-rule:nonzero;stroke:none"
       d="m 303.74272,398.89979 5.41192,6.14999 -5.41192,6.15126 -5.53481,-6.15126 5.53481,-6.14999 z" />
    <g
       transform="matrix(1.2671275,0,0,1.25,212.52218,871.32103)"
       id="g3044">
      <path
         id="path3046"
         style="fill:none;stroke:#231f20;stroke-width:0.2;stroke-linecap:butt;stroke-linejoin:miter;stroke-miterlimit:10;stroke-opacity:1;stroke-dasharray:none"
         d="m 71.99,-377.937 4.271,4.92 -4.271,4.921 -4.368,-4.921 4.368,-4.92 z" />
    </g>
    <path
       id="path3048"
       style="fill:#ee293d;fill-opacity:1;fill-rule:nonzero;stroke:none"
       d="m 303.77061,401.41228 3.22991,3.6975 -3.17162,3.61126 -3.33889,-3.67375 3.2806,-3.63501 z" />
    <g
       transform="matrix(1.2671275,0,0,1.25,212.52218,871.32103)"
       id="g3050">
      <path
         id="path3052"
         style="fill:none;stroke:#231f20;stroke-width:0.131;stroke-linecap:butt;stroke-linejoin:miter;stroke-miterlimit:10;stroke-opacity:1;stroke-dasharray:none"
         d="m 72.01201,-375.9271 2.549,2.958 -2.503,2.8891 -2.63501,-2.939 2.58901,-2.9081 z" />
    </g>
    <path
       id="path3054"
       style="fill:#fff200;fill-opacity:1;fill-rule:nonzero;stroke:none"
       d="m 338.96762,398.70729 5.40679,6.15125 -5.40679,6.1475 -5.53861,-6.1475 5.53861,-6.15125 z" />
    <g
       transform="matrix(1.2671275,0,0,1.25,212.52218,871.32103)"
       id="g3056">
      <path
         id="path3058"
         style="fill:none;stroke:#231f20;stroke-width:0.2;stroke-linecap:butt;stroke-linejoin:miter;stroke-miterlimit:10;stroke-opacity:1;stroke-dasharray:none"
         d="m 99.789,-378.091 4.267,4.921 -4.267,4.918 -4.37099,-4.918 4.37099,-4.921 z" />
    </g>
    <path
       id="path3060"
       style="fill:#ee293d;fill-opacity:1;fill-rule:nonzero;stroke:none"
       d="m 338.93467,401.21354 3.23245,3.69749 -3.17668,3.6125 -3.33762,-3.6775 3.28185,-3.63249 z" />
    <g
       transform="matrix(1.2671275,0,0,1.25,212.52218,871.32103)"
       id="g3062">
      <path
         id="path3064"
         style="fill:none;stroke:#231f20;stroke-width:0.131;stroke-linecap:butt;stroke-linejoin:miter;stroke-miterlimit:10;stroke-opacity:1;stroke-dasharray:none"
         d="m 99.76301,-376.086 2.55099,2.958 -2.50699,2.89 -2.63401,-2.942 2.59001,-2.906 z" />
    </g>
    <g
       transform="matrix(1.2671275,0,0,1.25,212.52218,871.32103)"
       id="g3066">
      <path
         id="path3068"
         style="fill:none;stroke:#ffffff;stroke-width:0.80000001;stroke-linecap:butt;stroke-linejoin:miter;stroke-miterlimit:10;stroke-opacity:1;stroke-dasharray:none"
         d="m 62.993,-379.928 c -1.042,35.086 -4.378,45.615 22.83101,58.698 27.21099,-13.083 23.87299,-23.612 22.83299,-58.698 l -45.664,0 z" />
    </g>
    <path
       id="path3070"
       style="fill:#1b4f9c;fill-opacity:1;fill-rule:nonzero;stroke:none"
       d="m 309.69696,440.85854 -0.71339,-0.215 -0.536,0 -0.29651,0.37375 0.3548,0.0525 0.35734,0.265 0.23947,0.43 0.53219,-0.2125 0.0621,-0.4275 0,-0.26625 z" />
    <path
       id="path3072"
       style="fill:#1b4f9c;fill-opacity:1;fill-rule:nonzero;stroke:none"
       d="m 306.24531,443.11978 -0.41942,-0.10499 -0.47391,0.10499 0.17867,-0.37249 0.17865,-0.37375 0.23696,-0.1575 0.29905,-0.0538 0.4739,0 0.0596,0.585 -0.53345,0.37249 z" />
    <path
       id="path3074"
       style="fill:#1b4f9c;fill-opacity:1;fill-rule:nonzero;stroke:none"
       d="m 304.0595,445.12479 -0.47515,0.15749 -0.2357,0.32 0,-0.58499 0.057,-0.37126 0.35734,-0.32124 0.23948,-0.42625 0.29524,0.37375 -0.0583,0.53125 -0.17995,0.32124 z" />
    <path
       id="path3076"
       style="fill:#1b4f9c;fill-opacity:1;fill-rule:nonzero;stroke:none"
       d="m 304.07978,446.84354 -0.47517,0.32 -0.53474,0.21124 0,-0.31625 0.17742,-0.375 0.17739,-0.3725 0.29904,-0.21125 0.47518,0 0.0596,0.47876 -0.17867,0.265 z" />
    <path
       id="path3078"
       style="fill:#1b4f9c;fill-opacity:1;fill-rule:nonzero;stroke:none"
       d="m 304.51441,450.51479 -0.53346,-0.2675 -0.41688,0.055 -0.29777,0.2125 0,-0.37125 0.35858,-0.37375 0.41563,-0.2675 0.53599,-0.105 0.11785,0.3725 -0.17994,0.745 z" />
    <path
       id="path3080"
       style="fill:#1b4f9c;fill-opacity:1;fill-rule:nonzero;stroke:none"
       d="m 303.28403,453.49478 -0.35352,0.26625 -0.35987,0.32 -0.23822,0.42625 -0.17613,0.42625 -0.23949,-0.585 0.0596,-0.69375 0.35607,-0.53124 0.6551,0.0512 0.0583,0 0.23823,0.32 z" />
    <path
       id="path3082"
       style="fill:#1b4f9c;fill-opacity:1;fill-rule:nonzero;stroke:none"
       d="m 304.25718,455.99229 -0.53346,0.48124 -0.17739,0.26625 -0.0608,0.425 -0.23821,-0.8 0.0608,-0.63625 0.1774,-0.48124 0.47645,0.21249 0.057,0 0.17994,0.26875 0.0583,0.26376 z" />
    <path
       id="path3084"
       style="fill:#1b4f9c;fill-opacity:1;fill-rule:nonzero;stroke:none"
       d="m 306.90041,457.19728 0.23696,0.37375 0.41942,0.36875 0.35606,0.11 -0.23695,0.1075 -0.41816,0 -0.59428,-0.16 -0.35352,-0.21375 -0.1812,-0.32 -0.11658,-0.47875 0.29778,-0.10625 0.59047,0.31875 z" />
    <path
       id="path3086"
       style="fill:#1b4f9c;fill-opacity:1;fill-rule:nonzero;stroke:none"
       d="m 312.08296,462.29479 0,0.48374 0.23695,0.47625 0.53601,0.42625 0.65256,0.215 0.47392,0 -0.35862,-0.42625 -0.17612,-0.58375 0.12037,-0.48125 -0.53598,-0.215 -0.59429,0.0538 -0.3548,0.0513 z" />
    <path
       id="path3088"
       style="fill:#1b4f9c;fill-opacity:1;fill-rule:nonzero;stroke:none"
       d="m 310.00233,461.06728 -0.56132,0.26375 -0.44858,0.64 -0.20653,-0.66125 0.0329,-0.82875 0.17358,-0.58625 0.35987,0.1075 0.35733,0.21375 0.23696,0.32 0.0557,0.53125 z" />
    <path
       id="path3090"
       style="fill:#1b4f9c;fill-opacity:1;fill-rule:nonzero;stroke:none"
       d="m 309.83635,458.73229 -0.77422,0.05 -0.66777,0.3625 0.0747,-0.68 0.29651,-0.47875 0.59681,-0.37375 0.65257,-0.10625 0.0583,0.37125 0,0.4775 -0.23695,0.3775 z" />
    <path
       id="path3092"
       style="fill:#1b4f9c;fill-opacity:1;fill-rule:nonzero;stroke:none"
       d="m 311.91697,456.40479 -0.65004,-0.3225 -0.53472,0 -0.47645,0.21249 0.17994,-0.37125 0.41181,-0.37499 0.77422,-0.0525 0.71212,0.0525 -0.11784,0.32124 -0.29904,0.535 z" />
    <path
       id="path3094"
       style="fill:#1b4f9c;fill-opacity:1;fill-rule:nonzero;stroke:none"
       d="m 321.42043,466.31353 -0.44602,0.16 -0.4169,0.18501 -0.4156,0.58499 -0.0887,-0.61 0.23695,-0.48 0.3548,-0.32125 0.56513,-0.2375 0.32693,0.39875 -0.11658,0.32 z" />
    <path
       id="path3096"
       style="fill:#1b4f9c;fill-opacity:1;fill-rule:nonzero;stroke:none"
       d="m 319.71995,464.68353 -0.4169,0.32 -0.17991,0.1575 -0.14827,0.24 -0.23821,0.37375 -0.23442,-0.665 0.0862,-0.56125 0.4777,-0.66375 0.35354,0.0525 0.41815,0.2125 0,0.27 -0.11784,0.26375 z" />
    <path
       id="path3098"
       style="fill:#1b4f9c;fill-opacity:1;fill-rule:nonzero;stroke:none"
       d="m 320.31676,462.63353 -0.71212,0.10751 -0.47138,0.21249 -0.1812,0.47875 -0.0583,-0.47875 0.17738,-0.64 0.47519,-0.37 0.7704,-0.21625 0.0608,0.42625 -0.0608,0.48 z" />
    <path
       id="path3100"
       style="fill:#1b4f9c;fill-opacity:1;fill-rule:nonzero;stroke:none"
       d="m 321.98557,460.89228 -0.47517,-0.26625 -0.59301,0 -0.35481,0.26625 0.26484,-0.79875 0.74126,-0.2675 0.29652,0.21625 0.1812,0.3725 -0.0608,0.4775 z" />
    <path
       id="path3102"
       style="fill:#ee293d;fill-opacity:1;fill-rule:nonzero;stroke:none"
       d="m 321.51673,423.97478 c 1.95138,-2.09875 5.8554,0.8775 7.87647,-0.69125 l 0,-8.19125 c -0.25215,0.19626 -0.86672,0.0213 -1.15309,-0.4725 -2.05908,2.745 -5.01529,-0.67362 -6.72338,1.1625" />
    <g
       transform="matrix(1.2671275,0,0,1.25,212.52218,871.32103)"
       id="g3104">
      <path
         id="path3106"
         style="fill:none;stroke:#231f20;stroke-width:0.133;stroke-linecap:butt;stroke-linejoin:miter;stroke-miterlimit:10;stroke-opacity:1;stroke-dasharray:none"
         d="m 86.01701,-357.877 c 1.54,-1.679 4.621,0.702 6.21599,-0.553 l 0,-6.553 c -0.199,0.157 -0.684,0.017 -0.90999,-0.378 -1.625,2.196 -3.958,-0.539 -5.306,0.93" />
    </g>
    <path
       id="path3108"
       style="fill:#ee293d;fill-opacity:1;fill-rule:nonzero;stroke:none"
       d="m 321.51673,423.97478 c -1.95011,-2.09875 -5.85413,0.8775 -7.87521,-0.69125 l 0,-8.19125 c 0.28639,0.2225 1.00991,-0.0475 1.1569,-0.4725 1.36978,2.57125 5.04444,-0.63875 6.71832,1.1625" />
    <g
       transform="matrix(1.2671275,0,0,1.25,212.52218,871.32103)"
       id="g3110">
      <path
         id="path3112"
         style="fill:none;stroke:#231f20;stroke-width:0.133;stroke-linecap:butt;stroke-linejoin:miter;stroke-miterlimit:10;stroke-opacity:1;stroke-dasharray:none"
         d="m 86.01701,-357.877 c -1.53901,-1.679 -4.62001,0.702 -6.21501,-0.553 l 0,-6.553 c 0.22601,0.178 0.79701,-0.0381 0.913,-0.378 1.08101,2.057 3.98101,-0.511 5.30201,0.93" />
    </g>
    <path
       id="path3114"
       style="fill:#ffffff;fill-opacity:1;fill-rule:nonzero;stroke:none"
       d="m 321.51673,423.31853 c -1.95011,-2.10125 -4.69851,0.77125 -6.71831,-0.7975 l 0,-7.90125 c 2.0198,1.56875 4.7682,-1.4075 6.71831,0.69 l 0,8.00875 z" />
    <g
       transform="matrix(1.2671275,0,0,1.25,212.52218,871.32103)"
       id="g3116">
      <path
         id="path3118"
         style="fill:none;stroke:#363639;stroke-width:0.133;stroke-linecap:butt;stroke-linejoin:miter;stroke-miterlimit:10;stroke-opacity:1;stroke-dasharray:none"
         d="m 86.01701,-358.402 c -1.53901,-1.681 -3.708,0.617 -5.30201,-0.638 l 0,-6.321 c 1.59401,1.255 3.763,-1.126 5.30201,0.552 l 0,6.407 z" />
    </g>
    <path
       id="path3120"
       style="fill:#ffffff;fill-opacity:1;fill-rule:nonzero;stroke:none"
       d="m 321.51673,423.31853 c 1.95138,-2.10125 4.69724,0.77125 6.72338,-0.7975 l 0,-7.90125 c -2.02614,1.56875 -4.772,-1.4075 -6.72338,0.69 l 0,8.00875 z" />
    <g
       transform="matrix(1.2671275,0,0,1.25,212.52218,871.32103)"
       id="g3122">
      <path
         id="path3124"
         style="fill:none;stroke:#363639;stroke-width:0.133;stroke-linecap:butt;stroke-linejoin:miter;stroke-miterlimit:10;stroke-opacity:1;stroke-dasharray:none"
         d="m 86.01701,-358.402 c 1.54,-1.681 3.707,0.617 5.306,-0.638 l 0,-6.321 c -1.599,1.255 -3.766,-1.126 -5.306,0.552 l 0,6.407 z" />
    </g>
    <path
       id="path3126"
       style="fill:#ffffff;fill-opacity:1;fill-rule:nonzero;stroke:none"
       d="m 321.51673,423.31853 c -1.95011,-2.10125 -4.69851,0.77125 -6.71831,-0.7975 l 0,-7.90125 c 2.0198,1.56875 4.7682,-1.4075 6.71831,0.69 l 0,8.00875 z" />
    <g
       transform="matrix(1.2671275,0,0,1.25,212.52218,871.32103)"
       id="g3128">
      <path
         id="path3130"
         style="fill:none;stroke:#231f20;stroke-width:0.177;stroke-linecap:butt;stroke-linejoin:miter;stroke-miterlimit:10;stroke-opacity:1;stroke-dasharray:none"
         d="m 86.01701,-358.402 c -1.53901,-1.681 -3.708,0.617 -5.30201,-0.638 l 0,-6.321 c 1.59401,1.255 3.763,-1.126 5.30201,0.552 l 0,6.407 z" />
    </g>
    <path
       id="path3132"
       style="fill:#ffffff;fill-opacity:1;fill-rule:nonzero;stroke:none"
       d="m 321.51673,423.31853 c 1.95138,-2.10125 4.69724,0.77125 6.72338,-0.7975 l 0,-7.90125 c -2.02614,1.56875 -4.772,-1.4075 -6.72338,0.69 l 0,8.00875 z" />
    <g
       transform="matrix(1.2671275,0,0,1.25,212.52218,871.32103)"
       id="g3134">
      <path
         id="path3136"
         style="fill:none;stroke:#231f20;stroke-width:0.177;stroke-linecap:butt;stroke-linejoin:miter;stroke-miterlimit:10;stroke-opacity:1;stroke-dasharray:none"
         d="m 86.01701,-358.402 c 1.54,-1.681 3.707,0.617 5.306,-0.638 l 0,-6.321 c -1.599,1.255 -3.766,-1.126 -5.306,0.552 l 0,6.407 z m -5.30901,-5.435 c 1.596,1.253 3.763,-1.129 5.303,0.551 m -5.303,2.701 c 1.596,1.254 3.763,-1.126 5.303,0.553 m -5.303,-2.186 c 1.596,1.2539 3.763,-1.128 5.303,0.553" />
    </g>
    <path
       id="path3138"
       style="fill:#ffffff;fill-opacity:1;fill-rule:nonzero;stroke:none"
       d="m 321.3178,415.80604 -0.44096,0 0,6.37008 0.44096,0 0,-6.37008 z" />
    <g
       transform="matrix(1.2671275,0,0,1.25,212.52218,871.32103)"
       id="g3140">
      <path
         id="path3142"
         style="fill:none;stroke:#ffffff;stroke-width:0.177;stroke-linecap:butt;stroke-linejoin:miter;stroke-miterlimit:10;stroke-opacity:1;stroke-dasharray:none"
         d="m 85.86,-359.316 0,-5.096 -0.349,0 0,5.096 0.349,0 z" />
    </g>
    <path
       id="path3144"
       style="fill:#ffffff;fill-opacity:1;fill-rule:nonzero;stroke:none"
       d="m 315.42439,415.44228 -0.44349,0 0,6.37002 0.44349,0 0,-6.37002 z" />
    <g
       transform="matrix(1.2671275,0,0,1.25,212.52218,871.32103)"
       id="g3146">
      <path
         id="path3148"
         style="fill:none;stroke:#ffffff;stroke-width:0.177;stroke-linecap:butt;stroke-linejoin:miter;stroke-miterlimit:10;stroke-opacity:1;stroke-dasharray:none"
         d="m 81.20901,-359.607 0,-5.096 -0.35001,0 0,5.096 0.35001,0 z" />
    </g>
    <g
       transform="matrix(1.2671275,0,0,1.25,212.52218,871.32103)"
       id="g3150">
      <path
         id="path3152"
         style="fill:none;stroke:#231f20;stroke-width:0.177;stroke-linecap:butt;stroke-linejoin:miter;stroke-miterlimit:10;stroke-opacity:1;stroke-dasharray:none"
         d="m 91.301,-363.837 c -1.596,1.253 -3.764,-1.129 -5.304,0.551 m 5.304,2.701 c -1.596,1.254 -3.764,-1.126 -5.304,0.553 m 5.304,-2.186 c -1.596,1.2539 -3.764,-1.128 -5.304,0.552" />
    </g>
    <path
       id="path3154"
       style="fill:#ffffff;fill-opacity:1;fill-rule:nonzero;stroke:none"
       d="m 321.684,415.80604 0.44096,0 0,6.37008 -0.44096,0 0,-6.37008 z" />
    <g
       transform="matrix(1.2671275,0,0,1.25,212.52218,871.32103)"
       id="g3156">
      <path
         id="path3158"
         style="fill:none;stroke:#ffffff;stroke-width:0.177;stroke-linecap:butt;stroke-linejoin:miter;stroke-miterlimit:10;stroke-opacity:1;stroke-dasharray:none"
         d="m 86.149,-359.316 0,-5.096 0.347,0 0,5.096 -0.347,0 z" />
    </g>
    <path
       id="path3160"
       style="fill:#ffffff;fill-opacity:1;fill-rule:nonzero;stroke:none"
       d="m 327.60908,415.33978 0.44603,0 0,6.36872 -0.44603,0 0,-6.36872 z" />
    <g
       transform="matrix(1.2671275,0,0,1.25,212.52218,871.32103)"
       id="g3162">
      <path
         id="path3164"
         style="fill:none;stroke:#ffffff;stroke-width:0.177;stroke-linecap:butt;stroke-linejoin:miter;stroke-miterlimit:10;stroke-opacity:1;stroke-dasharray:none"
         d="m 90.825,-359.69 0,-5.095 0.352,0 0,5.095 -0.352,0 z" />
    </g>
  </g>
</svg>
