<?xml version="1.0" encoding="UTF-8" standalone="no"?>
<!-- Created with Inkscape (http://www.inkscape.org/) -->
<svg
   xmlns:dc="http://purl.org/dc/elements/1.1/"
   xmlns:cc="http://creativecommons.org/ns#"
   xmlns:rdf="http://www.w3.org/1999/02/22-rdf-syntax-ns#"
   xmlns:svg="http://www.w3.org/2000/svg"
   xmlns="http://www.w3.org/2000/svg"
   xmlns:sodipodi="http://sodipodi.sourceforge.net/DTD/sodipodi-0.dtd"
   xmlns:inkscape="http://www.inkscape.org/namespaces/inkscape"
   width="120.58632"
   height="60.28656"
   id="svg10823"
   sodipodi:version="0.32"
   inkscape:version="0.46"
   version="1.0"
   sodipodi:docname="iso_floor_wood2.svg"
   inkscape:output_extension="org.inkscape.output.svg.inkscape">
  <defs
     id="defs3">
    <inkscape:perspective
       sodipodi:type="inkscape:persp3d"
       inkscape:vp_x="0 : 526.18109 : 1"
       inkscape:vp_y="0 : 1000 : 0"
       inkscape:vp_z="744.09448 : 526.18109 : 1"
       inkscape:persp3d-origin="372.04724 : 350.78739 : 1"
       id="perspective10829" />
  </defs>
  <sodipodi:namedview
     inkscape:document-units="mm"
     id="base"
     pagecolor="#ffffff"
     bordercolor="#666666"
     borderopacity="1.0"
     inkscape:pageopacity="0.0"
     inkscape:pageshadow="2"
     inkscape:zoom="1"
     inkscape:cx="149.50961"
     inkscape:cy="118.71344"
     inkscape:current-layer="layer1"
     showgrid="false"
     inkscape:window-width="640"
     inkscape:window-height="662"
     inkscape:window-x="0"
     inkscape:window-y="0" />
  <metadata
     id="metadata4">
    <rdf:RDF>
      <cc:Work
         rdf:about="">
        <dc:format>image/svg+xml</dc:format>
        <dc:type
           rdf:resource="http://purl.org/dc/dcmitype/StillImage" />
      </cc:Work>
    </rdf:RDF>
  </metadata>
  <g
     inkscape:label="Layer 1"
     inkscape:groupmode="layer"
     id="layer1"
     transform="translate(-425.42112,-516.50462)">
    <g
       id="g3156"
       transform="translate(358.9903,118.76343)">
      <g
         id="g6921"
         transform="matrix(1.5,0,0,1.5,-45.861098,-195.38068)">
        <path
           style="fill:#8f5902;fill-opacity:1;fill-rule:nonzero;stroke:none;stroke-width:0.25;stroke-linecap:butt;stroke-linejoin:bevel;stroke-miterlimit:4;stroke-dasharray:none;stroke-dashoffset:0;stroke-opacity:1"
           d="M 114.87016,395.41458 L 74.86128,415.41458 L 115.24336,435.60562 L 155.25216,415.60562 L 114.87016,395.41458 z"
           id="path2671"
           sodipodi:nodetypes="ccccc" />
        <g
           id="g6826">
          <path
             sodipodi:nodetypes="ccccccc"
             id="path2673"
             d="M 106.86832,399.41458 L 111.1264,401.2093 L 146.87712,419.41458 L 146.12712,419.78962 L 133.72472,413.1485 L 106.11384,399.78962 L 106.86832,399.41458 z"
             style="fill:#2e3436;fill-opacity:1;fill-rule:nonzero;stroke:none;stroke-width:0.25;stroke-linecap:butt;stroke-linejoin:bevel;stroke-miterlimit:4;stroke-dasharray:none;stroke-dashoffset:0;stroke-opacity:1" />
          <path
             style="fill:#2e3436;fill-opacity:1;fill-rule:nonzero;stroke:none;stroke-width:0.25;stroke-linecap:butt;stroke-linejoin:bevel;stroke-miterlimit:4;stroke-dasharray:none;stroke-dashoffset:0;stroke-opacity:1"
             d="M 114.87008,395.41458 L 154.87888,415.41458 L 154.12888,415.78962 L 114.1156,395.78962 L 114.87008,395.41458 z"
             id="path2881"
             sodipodi:nodetypes="ccccc" />
          <path
             style="opacity:0.4;fill:#a86b09;fill-opacity:1;fill-rule:nonzero;stroke:none;stroke-width:0.25;stroke-linecap:butt;stroke-linejoin:bevel;stroke-miterlimit:4;stroke-dasharray:none;stroke-dashoffset:0;stroke-opacity:1"
             d="M 112.00348,396.90562 C 116.01964,398.98394 119.19276,401.63074 123.42012,403.70906 L 133.73572,409.14938 L 152.01228,416.90562 L 151.26228,417.28066 C 151.26228,417.28066 136.71364,410.97154 130.6386,407.9317 C 124.70348,404.96178 111.249,397.28066 111.249,397.28066 L 112.00348,396.90562 z"
             id="path2967"
             sodipodi:nodetypes="cccccscc" />
          <path
             sodipodi:nodetypes="cccccscc"
             id="path2969"
             d="M 110.4106,397.6997 C 114.42676,399.77802 117.1126,402.42482 121.33996,404.50314 L 131.2494,410.02466 L 150.4194,417.6997 L 149.6694,418.07474 C 149.6694,418.07474 134.3898,411.92802 128.31476,408.88818 C 122.37964,405.91826 109.65612,398.07474 109.65612,398.07474 L 110.4106,397.6997 z"
             style="fill:#a86b09;fill-opacity:1;fill-rule:nonzero;stroke:none;stroke-width:0.25;stroke-linecap:butt;stroke-linejoin:bevel;stroke-miterlimit:4;stroke-dasharray:none;stroke-dashoffset:0;stroke-opacity:1" />
          <path
             style="fill:#a86b09;fill-opacity:1;fill-rule:nonzero;stroke:none;stroke-width:0.25;stroke-linecap:butt;stroke-linejoin:bevel;stroke-miterlimit:4;stroke-dasharray:none;stroke-dashoffset:0;stroke-opacity:1"
             d="M 113.53044,396.14234 C 117.5466,398.22066 120.801,400.54258 125.02836,402.6209 L 135.34388,407.73634 L 153.53924,416.14234 L 152.78924,416.51738 C 152.78924,416.51738 138.40308,409.7209 132.32804,406.68106 C 126.39292,403.71114 112.77596,396.51738 112.77596,396.51738 L 113.53044,396.14234 z"
             id="path2971"
             sodipodi:nodetypes="cccccscc" />
          <path
             sodipodi:nodetypes="cccccscc"
             id="path2977"
             d="M 108.49981,398.66615 C 112.51597,400.74447 115.77037,403.06639 119.99773,405.14471 L 130.31325,410.26015 L 148.50861,418.66615 L 147.75861,419.04119 C 147.75861,419.04119 133.37245,412.24471 127.29741,409.20487 C 121.36229,406.23495 107.74533,399.04119 107.74533,399.04119 L 108.49981,398.66615 z"
             style="opacity:0.5;fill:#c17d11;fill-opacity:1;fill-rule:nonzero;stroke:none;stroke-width:0.25;stroke-linecap:butt;stroke-linejoin:bevel;stroke-miterlimit:4;stroke-dasharray:none;stroke-dashoffset:0;stroke-opacity:1" />
          <path
             style="opacity:1;fill:#2e3436;fill-opacity:1;fill-rule:nonzero;stroke:none;stroke-width:0.25;stroke-linecap:butt;stroke-linejoin:bevel;stroke-miterlimit:4;stroke-dasharray:none;stroke-dashoffset:0;stroke-opacity:1"
             d="M 139.81861,415.96468 L 132.21829,420.66536 L 132.52469,420.8719 L 140.22005,416.16536 L 139.81861,415.96468 z"
             id="path3150"
             sodipodi:nodetypes="ccccc" />
        </g>
        <g
           transform="translate(34.75,28.25)"
           id="g6881">
          <path
             style="opacity:0.4;fill:#a86b09;fill-opacity:1;fill-rule:nonzero;stroke:none;stroke-width:0.25;stroke-linecap:butt;stroke-linejoin:bevel;stroke-miterlimit:4;stroke-dasharray:none;stroke-dashoffset:0;stroke-opacity:1"
             d="M 53.269016,380.90041 C 57.285176,382.97873 60.458296,385.62553 64.68566,387.70385 L 75.00126,393.14417 L 93.277816,400.90041 L 92.527816,401.27545 C 92.527816,401.27545 77.97918,394.96633 71.90414,391.92649 C 65.96902,388.95657 52.514536,381.27545 52.514536,381.27545 L 53.269016,380.90041 z"
             id="path6851"
             sodipodi:nodetypes="cccccscc" />
          <path
             sodipodi:nodetypes="cccccscc"
             id="path6853"
             d="M 51.676136,381.69449 C 55.692296,383.77281 58.378136,386.41961 62.605496,388.49793 L 72.51494,394.01945 L 91.684936,401.69449 L 90.934936,402.06953 C 90.934936,402.06953 75.65534,395.92281 69.5803,392.88297 C 63.64518,389.91305 50.921656,382.06953 50.921656,382.06953 L 51.676136,381.69449 z"
             style="fill:#a86b09;fill-opacity:1;fill-rule:nonzero;stroke:none;stroke-width:0.25;stroke-linecap:butt;stroke-linejoin:bevel;stroke-miterlimit:4;stroke-dasharray:none;stroke-dashoffset:0;stroke-opacity:1" />
          <path
             style="fill:#a86b09;fill-opacity:1;fill-rule:nonzero;stroke:none;stroke-width:0.25;stroke-linecap:butt;stroke-linejoin:bevel;stroke-miterlimit:4;stroke-dasharray:none;stroke-dashoffset:0;stroke-opacity:1"
             d="M 54.795976,380.13713 C 58.812136,382.21545 62.066536,384.53737 66.2939,386.61569 L 76.60942,391.73113 L 94.804776,400.13713 L 94.054776,400.51217 C 94.054776,400.51217 79.66862,393.71569 73.59358,390.67585 C 67.65846,387.70593 54.041496,380.51217 54.041496,380.51217 L 54.795976,380.13713 z"
             id="path6855"
             sodipodi:nodetypes="cccccscc" />
          <path
             sodipodi:nodetypes="cccccscc"
             id="path6857"
             d="M 49.765346,382.66094 C 53.781506,384.73926 57.035906,387.06118 61.263266,389.1395 L 71.57879,394.25494 L 89.774146,402.66094 L 89.024146,403.03598 C 89.024146,403.03598 74.63799,396.2395 68.56295,393.19966 C 62.627826,390.22974 49.010866,383.03598 49.010866,383.03598 L 49.765346,382.66094 z"
             style="opacity:0.5;fill:#c17d11;fill-opacity:1;fill-rule:nonzero;stroke:none;stroke-width:0.25;stroke-linecap:butt;stroke-linejoin:bevel;stroke-miterlimit:4;stroke-dasharray:none;stroke-dashoffset:0;stroke-opacity:1" />
        </g>
        <g
           transform="translate(8.25,54.25)"
           id="g6887">
          <path
             style="opacity:0.4;fill:#a86b09;fill-opacity:1;fill-rule:nonzero;stroke:none;stroke-width:0.25;stroke-linecap:butt;stroke-linejoin:bevel;stroke-miterlimit:4;stroke-dasharray:none;stroke-dashoffset:0;stroke-opacity:1"
             d="M 87.845994,350.85295 C 91.862154,352.93127 95.477214,355.3129 99.704574,357.39122 L 109.88759,362.83154 C 114.18124,364.74296 117.98874,366.65461 122.28239,368.67059 L 127.85479,370.85295 L 127.10479,371.22799 C 127.10479,371.22799 112.9097,364.6979 106.83466,361.65806 C 100.89954,358.68814 87.091514,351.22799 87.091514,351.22799 L 87.845994,350.85295 z"
             id="path6889"
             sodipodi:nodetypes="ccccccscc" />
          <path
             sodipodi:nodetypes="cccccsscc"
             id="path6891"
             d="M 86.253114,351.64703 C 90.269274,353.72535 93.662224,355.79763 97.889584,357.87595 L 108.10838,363.35327 L 126.26191,371.64703 L 125.51191,372.02207 C 125.51191,372.02207 111.15891,365.127 105.08535,362.08421 C 100.8173,359.94596 92.903674,355.44979 88.505944,353.2232 C 86.826274,352.37277 85.498634,352.02207 85.498634,352.02207 L 86.253114,351.64703 z"
             style="fill:#a86b09;fill-opacity:1;fill-rule:nonzero;stroke:none;stroke-width:0.25;stroke-linecap:butt;stroke-linejoin:bevel;stroke-miterlimit:4;stroke-dasharray:none;stroke-dashoffset:0;stroke-opacity:1" />
          <path
             style="fill:#a86b09;fill-opacity:1;fill-rule:nonzero;stroke:none;stroke-width:0.25;stroke-linecap:butt;stroke-linejoin:bevel;stroke-miterlimit:4;stroke-dasharray:none;stroke-dashoffset:0;stroke-opacity:1"
             d="M 89.372954,350.08967 C 93.389114,352.16799 96.510934,354.35733 100.73829,356.43565 L 111.40736,361.59528 L 129.38175,370.08967 L 128.63175,370.46471 C 128.63175,370.46471 114.46656,363.53565 108.39152,360.49581 C 102.4564,357.52589 88.618474,350.46471 88.618474,350.46471 L 89.372954,350.08967 z"
             id="path6893"
             sodipodi:nodetypes="cccccscc" />
          <path
             sodipodi:nodetypes="cscccsscc"
             id="path6895"
             d="M 84.342324,352.61348 C 85.710724,353.21548 87.160944,353.67423 88.396524,354.32873 C 91.041444,355.72978 93.336054,357.39457 96.193794,358.82687 L 124.35112,372.61348 L 123.60112,372.98852 C 113.99038,368.13485 104.42023,363.20004 94.802984,358.35944 C 92.637474,357.26949 90.602154,355.96334 88.430874,354.88494 C 86.890374,354.11984 85.128714,353.75288 83.587844,352.98852 L 84.342324,352.61348 z"
             style="opacity:0.5;fill:#c17d11;fill-opacity:1;fill-rule:nonzero;stroke:none;stroke-width:0.25;stroke-linecap:butt;stroke-linejoin:bevel;stroke-miterlimit:4;stroke-dasharray:none;stroke-dashoffset:0;stroke-opacity:1" />
          <path
             style="opacity:0.5;fill:#c17d11;fill-opacity:1;fill-rule:nonzero;stroke:none;stroke-width:0.25;stroke-linecap:butt;stroke-linejoin:bevel;stroke-miterlimit:4;stroke-dasharray:none;stroke-dashoffset:0;stroke-opacity:1"
             d="M 84.342324,352.61348 C 85.710724,353.21548 87.160944,353.67423 88.396524,354.32873 C 91.041444,355.72978 93.336054,357.39457 96.193794,358.82687 L 124.35112,372.61348 L 123.60112,372.98852 C 113.99038,368.13485 104.42023,363.20004 94.802984,358.35944 C 92.637474,357.26949 90.602154,355.96334 88.430874,354.88494 C 86.890374,354.11984 85.128714,353.75288 83.587844,352.98852 L 84.342324,352.61348 z"
             id="path6897"
             sodipodi:nodetypes="cscccsscc" />
        </g>
        <g
           id="g6899"
           transform="translate(51.5,19.75)">
          <path
             sodipodi:nodetypes="cccccscc"
             id="path6901"
             d="M 53.269016,380.90041 C 57.285176,382.97873 60.458296,385.62553 64.68566,387.70385 L 75.00126,393.14417 L 93.277816,400.90041 L 92.527816,401.27545 C 92.527816,401.27545 77.97918,394.96633 71.90414,391.92649 C 65.96902,388.95657 52.514536,381.27545 52.514536,381.27545 L 53.269016,380.90041 z"
             style="opacity:0.4;fill:#a86b09;fill-opacity:1;fill-rule:nonzero;stroke:none;stroke-width:0.25;stroke-linecap:butt;stroke-linejoin:bevel;stroke-miterlimit:4;stroke-dasharray:none;stroke-dashoffset:0;stroke-opacity:1" />
          <path
             style="fill:#a86b09;fill-opacity:1;fill-rule:nonzero;stroke:none;stroke-width:0.25;stroke-linecap:butt;stroke-linejoin:bevel;stroke-miterlimit:4;stroke-dasharray:none;stroke-dashoffset:0;stroke-opacity:1"
             d="M 51.676136,381.69449 C 55.692296,383.77281 58.378136,386.41961 62.605496,388.49793 L 72.51494,394.01945 L 91.684936,401.69449 L 90.934936,402.06953 C 90.934936,402.06953 75.65534,395.92281 69.5803,392.88297 C 63.64518,389.91305 50.921656,382.06953 50.921656,382.06953 L 51.676136,381.69449 z"
             id="path6903"
             sodipodi:nodetypes="cccccscc" />
          <path
             sodipodi:nodetypes="cccccscc"
             id="path6905"
             d="M 54.795976,380.13713 C 58.812136,382.21545 62.066536,384.53737 66.2939,386.61569 L 76.60942,391.73113 L 94.804776,400.13713 L 94.054776,400.51217 C 94.054776,400.51217 79.66862,393.71569 73.59358,390.67585 C 67.65846,387.70593 54.041496,380.51217 54.041496,380.51217 L 54.795976,380.13713 z"
             style="fill:#a86b09;fill-opacity:1;fill-rule:nonzero;stroke:none;stroke-width:0.25;stroke-linecap:butt;stroke-linejoin:bevel;stroke-miterlimit:4;stroke-dasharray:none;stroke-dashoffset:0;stroke-opacity:1" />
          <path
             style="opacity:0.5;fill:#c17d11;fill-opacity:1;fill-rule:nonzero;stroke:none;stroke-width:0.25;stroke-linecap:butt;stroke-linejoin:bevel;stroke-miterlimit:4;stroke-dasharray:none;stroke-dashoffset:0;stroke-opacity:1"
             d="M 49.765346,382.66094 C 53.781506,384.73926 57.035906,387.06118 61.263266,389.1395 L 71.57879,394.25494 L 89.774146,402.66094 L 89.024146,403.03598 C 89.024146,403.03598 74.63799,396.2395 68.56295,393.19966 C 62.627826,390.22974 49.010866,383.03598 49.010866,383.03598 L 49.765346,382.66094 z"
             id="path6907"
             sodipodi:nodetypes="cccccscc" />
        </g>
        <g
           transform="translate(-8,62.375)"
           id="g6909">
          <path
             style="opacity:0.4;fill:#a86b09;fill-opacity:1;fill-rule:nonzero;stroke:none;stroke-width:0.25;stroke-linecap:butt;stroke-linejoin:bevel;stroke-miterlimit:4;stroke-dasharray:none;stroke-dashoffset:0;stroke-opacity:1"
             d="M 87.845994,350.85295 C 91.862154,352.93127 95.477214,355.3129 99.704574,357.39122 L 109.88759,362.83154 C 114.18124,364.74296 117.98874,366.65461 122.28239,368.67059 L 127.85479,370.85295 L 127.10479,371.22799 C 127.10479,371.22799 112.9097,364.6979 106.83466,361.65806 C 100.89954,358.68814 87.091514,351.22799 87.091514,351.22799 L 87.845994,350.85295 z"
             id="path6911"
             sodipodi:nodetypes="ccccccscc" />
          <path
             sodipodi:nodetypes="cccccsscc"
             id="path6913"
             d="M 86.253114,351.64703 C 90.269274,353.72535 93.662224,355.79763 97.889584,357.87595 L 108.10838,363.35327 L 126.26191,371.64703 L 125.51191,372.02207 C 125.51191,372.02207 111.15891,365.127 105.08535,362.08421 C 100.8173,359.94596 92.903674,355.44979 88.505944,353.2232 C 86.826274,352.37277 85.498634,352.02207 85.498634,352.02207 L 86.253114,351.64703 z"
             style="fill:#a86b09;fill-opacity:1;fill-rule:nonzero;stroke:none;stroke-width:0.25;stroke-linecap:butt;stroke-linejoin:bevel;stroke-miterlimit:4;stroke-dasharray:none;stroke-dashoffset:0;stroke-opacity:1" />
          <path
             style="fill:#a86b09;fill-opacity:1;fill-rule:nonzero;stroke:none;stroke-width:0.25;stroke-linecap:butt;stroke-linejoin:bevel;stroke-miterlimit:4;stroke-dasharray:none;stroke-dashoffset:0;stroke-opacity:1"
             d="M 89.372954,350.08967 C 93.389114,352.16799 96.510934,354.35733 100.73829,356.43565 L 111.40736,361.59528 L 129.38175,370.08967 L 128.63175,370.46471 C 128.63175,370.46471 114.46656,363.53565 108.39152,360.49581 C 102.4564,357.52589 88.618474,350.46471 88.618474,350.46471 L 89.372954,350.08967 z"
             id="path6915"
             sodipodi:nodetypes="cccccscc" />
          <path
             sodipodi:nodetypes="cscccsscc"
             id="path6917"
             d="M 84.342324,352.61348 C 85.710724,353.21548 87.160944,353.67423 88.396524,354.32873 C 91.041444,355.72978 93.336054,357.39457 96.193794,358.82687 L 124.35112,372.61348 L 123.60112,372.98852 C 113.99038,368.13485 104.42023,363.20004 94.802984,358.35944 C 92.637474,357.26949 90.602154,355.96334 88.430874,354.88494 C 86.890374,354.11984 85.128714,353.75288 83.587844,352.98852 L 84.342324,352.61348 z"
             style="opacity:0.5;fill:#c17d11;fill-opacity:1;fill-rule:nonzero;stroke:none;stroke-width:0.25;stroke-linecap:butt;stroke-linejoin:bevel;stroke-miterlimit:4;stroke-dasharray:none;stroke-dashoffset:0;stroke-opacity:1" />
          <path
             style="opacity:0.5;fill:#c17d11;fill-opacity:1;fill-rule:nonzero;stroke:none;stroke-width:0.25;stroke-linecap:butt;stroke-linejoin:bevel;stroke-miterlimit:4;stroke-dasharray:none;stroke-dashoffset:0;stroke-opacity:1"
             d="M 84.342324,352.61348 C 85.710724,353.21548 87.160944,353.67423 88.396524,354.32873 C 91.041444,355.72978 93.336054,357.39457 96.193794,358.82687 L 124.35112,372.61348 L 123.60112,372.98852 C 113.99038,368.13485 104.42023,363.20004 94.802984,358.35944 C 92.637474,357.26949 90.602154,355.96334 88.430874,354.88494 C 86.890374,354.11984 85.128714,353.75288 83.587844,352.98852 L 84.342324,352.61348 z"
             id="path6919"
             sodipodi:nodetypes="cscccsscc" />
        </g>
        <path
           sodipodi:nodetypes="cccccc"
           id="path2875"
           d="M 99.62104,403.03954 L 139.62984,423.03954 L 138.87984,423.41458 L 133.3184,421.03258 L 98.86656,403.41458 L 99.62104,403.03954 z"
           style="fill:#2e3436;fill-opacity:1;fill-rule:nonzero;stroke:none;stroke-width:0.25;stroke-linecap:butt;stroke-linejoin:bevel;stroke-miterlimit:4;stroke-dasharray:none;stroke-dashoffset:0;stroke-opacity:1" />
        <path
           style="fill:#2e3436;fill-opacity:1;fill-rule:nonzero;stroke:none;stroke-width:0.25;stroke-linecap:butt;stroke-linejoin:bevel;stroke-miterlimit:4;stroke-dasharray:none;stroke-dashoffset:0;stroke-opacity:1"
           d="M 90.8648,407.41458 L 130.8736,427.41458 L 130.1236,427.78962 C 122.732,424.0165 115.42872,419.8949 108.03704,416.35226 L 90.11032,407.78962 L 90.8648,407.41458 z"
           id="path2877"
           sodipodi:nodetypes="cccccc" />
        <path
           sodipodi:nodetypes="cccccc"
           id="path2879"
           d="M 82.6644,411.51378 L 105.51768,423.42394 L 122.6732,431.51378 L 121.9232,431.88882 L 81.90992,411.88882 L 82.6644,411.51378 z"
           style="fill:#2e3436;fill-opacity:1;fill-rule:nonzero;stroke:none;stroke-width:0.25;stroke-linecap:butt;stroke-linejoin:bevel;stroke-miterlimit:4;stroke-dasharray:none;stroke-dashoffset:0;stroke-opacity:1" />
        <path
           style="opacity:1;fill:#2e3436;fill-opacity:1;fill-rule:nonzero;stroke:none;stroke-width:0.25;stroke-linecap:butt;stroke-linejoin:bevel;stroke-miterlimit:4;stroke-dasharray:none;stroke-dashoffset:0;stroke-opacity:1"
           d="M 100.70999,420.96565 L 94.17874,424.8719 L 94.48514,425.07844 L 101.14969,421.1844 L 100.70999,420.96565 z"
           id="path3140"
           sodipodi:nodetypes="ccccc" />
        <path
           sodipodi:nodetypes="ccccc"
           id="path3146"
           d="M 119.75244,422.04622 L 112.15212,426.7469 L 112.45852,426.95344 L 120.15388,422.2469 L 119.75244,422.04622 z"
           style="opacity:1;fill:#2e3436;fill-opacity:1;fill-rule:nonzero;stroke:none;stroke-width:0.25;stroke-linecap:butt;stroke-linejoin:bevel;stroke-miterlimit:4;stroke-dasharray:none;stroke-dashoffset:0;stroke-opacity:1" />
        <path
           style="opacity:1;fill:#2e3436;fill-opacity:1;fill-rule:nonzero;stroke:none;stroke-width:0.25;stroke-linecap:butt;stroke-linejoin:bevel;stroke-miterlimit:4;stroke-dasharray:none;stroke-dashoffset:0;stroke-opacity:1"
           d="M 108.44361,407.83968 L 100.84329,412.54036 L 101.14969,412.7469 L 108.84505,408.04036 L 108.44361,407.83968 z"
           id="path3148"
           sodipodi:nodetypes="ccccc" />
        <path
           style="opacity:1;fill:#2e3436;fill-opacity:1;fill-rule:nonzero;stroke:none;stroke-width:0.25;stroke-linecap:butt;stroke-linejoin:bevel;stroke-miterlimit:4;stroke-dasharray:none;stroke-dashoffset:0;stroke-opacity:1"
           d="M 118.17269,397.25652 L 110.57237,401.9572 L 110.87877,402.16374 L 118.57413,397.4572 L 118.17269,397.25652 z"
           id="path3152"
           sodipodi:nodetypes="ccccc" />
        <path
           sodipodi:nodetypes="ccccc"
           id="path3154"
           d="M 142.52377,409.42937 L 135.15719,413.7469 L 135.90122,414.11884 L 142.92521,409.63005 L 142.52377,409.42937 z"
           style="opacity:1;fill:#2e3436;fill-opacity:1;fill-rule:nonzero;stroke:none;stroke-width:0.25;stroke-linecap:butt;stroke-linejoin:bevel;stroke-miterlimit:4;stroke-dasharray:none;stroke-dashoffset:0;stroke-opacity:1" />
      </g>
    </g>
  </g>
</svg>
