<?xml version="1.0" encoding="UTF-8" standalone="no"?>
<!-- Created with Inkscape (http://www.inkscape.org/) -->
<svg
   xmlns:dc="http://purl.org/dc/elements/1.1/"
   xmlns:cc="http://creativecommons.org/ns#"
   xmlns:rdf="http://www.w3.org/1999/02/22-rdf-syntax-ns#"
   xmlns:svg="http://www.w3.org/2000/svg"
   xmlns="http://www.w3.org/2000/svg"
   xmlns:sodipodi="http://sodipodi.sourceforge.net/DTD/sodipodi-0.dtd"
   xmlns:inkscape="http://www.inkscape.org/namespaces/inkscape"
   width="120.02644"
   height="60"
   id="svg10548"
   sodipodi:version="0.32"
   inkscape:version="0.46"
   version="1.0"
   sodipodi:docname="iso_floor_marmol.svg"
   inkscape:output_extension="org.inkscape.output.svg.inkscape">
  <defs
     id="defs3">
    <inkscape:perspective
       sodipodi:type="inkscape:persp3d"
       inkscape:vp_x="0 : 526.18109 : 1"
       inkscape:vp_y="0 : 1000 : 0"
       inkscape:vp_z="744.09448 : 526.18109 : 1"
       inkscape:persp3d-origin="372.04724 : 350.78739 : 1"
       id="perspective10554" />
  </defs>
  <sodipodi:namedview
     inkscape:document-units="mm"
     id="base"
     pagecolor="#ffffff"
     bordercolor="#666666"
     borderopacity="1.0"
     inkscape:pageopacity="0.0"
     inkscape:pageshadow="2"
     inkscape:zoom="0.35"
     inkscape:cx="350"
     inkscape:cy="536.86"
     inkscape:current-layer="layer1"
     showgrid="false"
     inkscape:window-width="640"
     inkscape:window-height="662"
     inkscape:window-x="0"
     inkscape:window-y="0" />
  <metadata
     id="metadata4">
    <rdf:RDF>
      <cc:Work
         rdf:about="">
        <dc:format>image/svg+xml</dc:format>
        <dc:type
           rdf:resource="http://purl.org/dc/dcmitype/StillImage" />
      </cc:Work>
    </rdf:RDF>
  </metadata>
  <g
     inkscape:label="Layer 1"
     inkscape:groupmode="layer"
     id="layer1"
     transform="translate(-228.55821,-256.6479)">
    <g
       id="g2979"
       transform="matrix(4,0,0,4,-650.1147,-1493.8959)">
      <g
         id="g7099">
        <g
           id="g7294"
           transform="translate(29.610097,30.935921)">
          <g
             id="g7071">
            <path
               id="path27158"
               d="M 190.05813,414.20003 L 205.06144,406.70003 L 220.06474,414.20003 L 205.06144,421.70003 L 190.05813,414.20003 z"
               style="fill:#f7f7f7;fill-opacity:1;fill-rule:nonzero;stroke:none;stroke-width:0.25;stroke-linecap:butt;stroke-linejoin:bevel;stroke-miterlimit:4;stroke-dasharray:none;stroke-dashoffset:0;stroke-opacity:1" />
            <path
               id="path27124"
               d="M 202.56144,407.94975 L 205.06144,409.19947 L 207.56144,407.94975 L 205.06144,406.70003 L 202.56144,407.94975 z"
               style="fill:#2e3436;fill-opacity:1;fill-rule:nonzero;stroke:none;stroke-width:0.25;stroke-linecap:butt;stroke-linejoin:bevel;stroke-miterlimit:4;stroke-dasharray:none;stroke-dashoffset:0;stroke-opacity:1" />
            <path
               style="fill:#2e3436;fill-opacity:1;fill-rule:nonzero;stroke:none;stroke-width:0.25;stroke-linecap:butt;stroke-linejoin:bevel;stroke-miterlimit:4;stroke-dasharray:none;stroke-dashoffset:0;stroke-opacity:1"
               d="M 195.05977,411.69975 L 197.55977,412.94947 L 200.05977,411.69975 L 197.55977,410.45003 L 195.05977,411.69975 z"
               id="path27128" />
            <path
               style="fill:#2e3436;fill-opacity:1;fill-rule:nonzero;stroke:none;stroke-width:0.25;stroke-linecap:butt;stroke-linejoin:bevel;stroke-miterlimit:4;stroke-dasharray:none;stroke-dashoffset:0;stroke-opacity:1"
               d="M 210.06253,411.69947 L 212.56253,412.94919 L 215.06253,411.69947 L 212.56253,410.44975 L 210.06253,411.69947 z"
               id="path27136" />
            <path
               style="fill:#2e3436;fill-opacity:1;fill-rule:nonzero;stroke:none;stroke-width:0.25;stroke-linecap:butt;stroke-linejoin:bevel;stroke-miterlimit:4;stroke-dasharray:none;stroke-dashoffset:0;stroke-opacity:1"
               d="M 202.56144,415.45031 L 205.06144,416.70003 L 207.56144,415.45031 L 205.06144,414.20059 L 202.56144,415.45031 z"
               id="path27138" />
            <path
               id="path27140"
               d="M 200.06088,411.70031 L 205.06088,414.19975 L 210.06088,411.70031 L 205.06088,409.20087 L 200.06088,411.70031 z"
               style="fill:#2e3436;fill-opacity:1;fill-rule:nonzero;stroke:none;stroke-width:0.25;stroke-linecap:butt;stroke-linejoin:bevel;stroke-miterlimit:4;stroke-dasharray:none;stroke-dashoffset:0;stroke-opacity:1" />
            <path
               style="fill:#2e3436;fill-opacity:1;fill-rule:nonzero;stroke:none;stroke-width:0.25;stroke-linecap:butt;stroke-linejoin:bevel;stroke-miterlimit:4;stroke-dasharray:none;stroke-dashoffset:0;stroke-opacity:1"
               d="M 197.56033,415.44975 L 200.06033,416.69947 L 202.56033,415.44975 L 200.06033,414.20003 L 197.56033,415.44975 z"
               id="path27144" />
            <path
               style="fill:#2e3436;fill-opacity:1;fill-rule:nonzero;stroke:none;stroke-width:0.25;stroke-linecap:butt;stroke-linejoin:bevel;stroke-miterlimit:4;stroke-dasharray:none;stroke-dashoffset:0;stroke-opacity:1"
               d="M 192.56033,415.44975 L 197.56033,417.94919 L 202.56033,415.44975 L 197.56033,412.95031 L 192.56033,415.44975 z"
               id="path6981" />
            <path
               style="fill:#2e3436;fill-opacity:1;fill-rule:nonzero;stroke:none;stroke-width:0.25;stroke-linecap:butt;stroke-linejoin:bevel;stroke-miterlimit:4;stroke-dasharray:none;stroke-dashoffset:0;stroke-opacity:1"
               d="M 207.56253,415.44919 L 212.56253,417.94863 L 217.56253,415.44919 L 212.56253,412.94975 L 207.56253,415.44919 z"
               id="path6983" />
            <path
               id="path6985"
               d="M 200.06088,419.20031 L 205.06088,421.69975 L 210.06088,419.20031 L 205.06088,416.70087 L 200.06088,419.20031 z"
               style="fill:#2e3436;fill-opacity:1;fill-rule:nonzero;stroke:none;stroke-width:0.25;stroke-linecap:butt;stroke-linejoin:bevel;stroke-miterlimit:4;stroke-dasharray:none;stroke-dashoffset:0;stroke-opacity:1" />
            <path
               style="fill:#ffffff;fill-opacity:1;fill-rule:nonzero;stroke:none;stroke-width:0.25;stroke-linecap:butt;stroke-linejoin:bevel;stroke-miterlimit:4;stroke-dasharray:none;stroke-dashoffset:0;stroke-opacity:1"
               d="M 204.13068,407.55893 C 204.13068,407.55893 204.77354,407.53818 205.03131,407.45096 C 205.36444,407.33823 205.948,407.55893 205.948,407.55893 L 205.03934,407.10471 L 204.13068,407.55893 z"
               id="path7039"
               sodipodi:nodetypes="csccc" />
            <path
               sodipodi:nodetypes="csccc"
               id="path7041"
               d="M 196.66186,411.23084 C 196.66186,411.23084 197.30472,411.21009 197.56249,411.12287 C 197.89562,411.01014 198.47918,411.23084 198.47918,411.23084 L 197.57052,410.77662 L 196.66186,411.23084 z"
               style="fill:#ffffff;fill-opacity:1;fill-rule:nonzero;stroke:none;stroke-width:0.25;stroke-linecap:butt;stroke-linejoin:bevel;stroke-miterlimit:4;stroke-dasharray:none;stroke-dashoffset:0;stroke-opacity:1" />
            <path
               style="fill:#ffffff;fill-opacity:1;fill-rule:nonzero;stroke:none;stroke-width:0.25;stroke-linecap:butt;stroke-linejoin:bevel;stroke-miterlimit:4;stroke-dasharray:none;stroke-dashoffset:0;stroke-opacity:1"
               d="M 204.17487,414.96904 C 204.17487,414.96904 204.81773,414.94829 205.0755,414.86107 C 205.40863,414.74834 205.99219,414.96904 205.99219,414.96904 L 205.08353,414.51482 L 204.17487,414.96904 z"
               id="path7043"
               sodipodi:nodetypes="csccc" />
            <path
               sodipodi:nodetypes="csccc"
               id="path7045"
               d="M 211.79987,411.28154 C 211.79987,411.28154 212.44273,411.26079 212.7005,411.17357 C 213.03363,411.06084 213.61719,411.28154 213.61719,411.28154 L 212.70853,410.82732 L 211.79987,411.28154 z"
               style="fill:#ffffff;fill-opacity:1;fill-rule:nonzero;stroke:none;stroke-width:0.25;stroke-linecap:butt;stroke-linejoin:bevel;stroke-miterlimit:4;stroke-dasharray:none;stroke-dashoffset:0;stroke-opacity:1" />
            <path
               style="fill:#ffffff;fill-opacity:1;fill-rule:nonzero;stroke:none;stroke-width:0.25;stroke-linecap:butt;stroke-linejoin:bevel;stroke-miterlimit:4;stroke-dasharray:none;stroke-dashoffset:0;stroke-opacity:1"
               d="M 203.63061,410.58235 C 203.63061,410.58235 204.59405,410.55125 204.98036,410.42054 C 205.47961,410.25159 206.35418,410.58235 206.35418,410.58235 L 204.9924,409.90162 L 203.63061,410.58235 z"
               id="path7047"
               sodipodi:nodetypes="csccc" />
            <path
               sodipodi:nodetypes="csccc"
               id="path7049"
               d="M 196.13061,414.1761 C 196.13061,414.1761 197.09405,414.145 197.48036,414.01429 C 197.97961,413.84534 198.85418,414.1761 198.85418,414.1761 L 197.4924,413.49537 L 196.13061,414.1761 z"
               style="fill:#ffffff;fill-opacity:1;fill-rule:nonzero;stroke:none;stroke-width:0.25;stroke-linecap:butt;stroke-linejoin:bevel;stroke-miterlimit:4;stroke-dasharray:none;stroke-dashoffset:0;stroke-opacity:1" />
            <path
               style="fill:#ffffff;fill-opacity:1;fill-rule:nonzero;stroke:none;stroke-width:0.25;stroke-linecap:butt;stroke-linejoin:bevel;stroke-miterlimit:4;stroke-dasharray:none;stroke-dashoffset:0;stroke-opacity:1"
               d="M 203.75561,417.76985 C 203.75561,417.76985 204.71905,417.73875 205.10536,417.60804 C 205.60461,417.43909 206.47918,417.76985 206.47918,417.76985 L 205.1174,417.08912 L 203.75561,417.76985 z"
               id="path7051"
               sodipodi:nodetypes="csccc" />
            <path
               sodipodi:nodetypes="csccc"
               id="path7053"
               d="M 211.25561,414.1761 C 211.25561,414.1761 212.21905,414.145 212.60536,414.01429 C 213.10461,413.84534 213.97918,414.1761 213.97918,414.1761 L 212.6174,413.49537 L 211.25561,414.1761 z"
               style="fill:#ffffff;fill-opacity:1;fill-rule:nonzero;stroke:none;stroke-width:0.25;stroke-linecap:butt;stroke-linejoin:bevel;stroke-miterlimit:4;stroke-dasharray:none;stroke-dashoffset:0;stroke-opacity:1" />
            <path
               sodipodi:nodetypes="csccc"
               id="path7055"
               d="M 199.16193,412.37143 C 199.16193,412.37143 199.80479,412.35068 200.06256,412.26346 C 200.39569,412.15073 200.97925,412.37143 200.97925,412.37143 L 200.07059,411.91721 L 199.16193,412.37143 z"
               style="fill:#cccccc;fill-opacity:1;fill-rule:nonzero;stroke:none;stroke-width:0.25;stroke-linecap:butt;stroke-linejoin:bevel;stroke-miterlimit:4;stroke-dasharray:none;stroke-dashoffset:0;stroke-opacity:1" />
            <path
               style="fill:#cccccc;fill-opacity:1;fill-rule:nonzero;stroke:none;stroke-width:0.25;stroke-linecap:butt;stroke-linejoin:bevel;stroke-miterlimit:4;stroke-dasharray:none;stroke-dashoffset:0;stroke-opacity:1"
               d="M 209.22443,412.34018 C 209.22443,412.34018 209.86729,412.31943 210.12506,412.23221 C 210.45819,412.11948 211.04175,412.34018 211.04175,412.34018 L 210.13309,411.88596 L 209.22443,412.34018 z"
               id="path7057"
               sodipodi:nodetypes="csccc" />
            <path
               sodipodi:nodetypes="csccc"
               id="path7059"
               d="M 201.66193,408.65268 C 201.66193,408.65268 202.30479,408.63193 202.56256,408.54471 C 202.89569,408.43198 203.47925,408.65268 203.47925,408.65268 L 202.57059,408.19846 L 201.66193,408.65268 z"
               style="fill:#cccccc;fill-opacity:1;fill-rule:nonzero;stroke:none;stroke-width:0.25;stroke-linecap:butt;stroke-linejoin:bevel;stroke-miterlimit:4;stroke-dasharray:none;stroke-dashoffset:0;stroke-opacity:1" />
            <path
               style="fill:#cccccc;fill-opacity:1;fill-rule:nonzero;stroke:none;stroke-width:0.25;stroke-linecap:butt;stroke-linejoin:bevel;stroke-miterlimit:4;stroke-dasharray:none;stroke-dashoffset:0;stroke-opacity:1"
               d="M 206.66193,408.59018 C 206.66193,408.59018 207.30479,408.56943 207.56256,408.48221 C 207.89569,408.36948 208.47925,408.59018 208.47925,408.59018 L 207.57059,408.13596 L 206.66193,408.59018 z"
               id="path7061"
               sodipodi:nodetypes="csccc" />
            <path
               sodipodi:nodetypes="csccc"
               id="path7063"
               d="M 214.13068,412.37143 C 214.13068,412.37143 214.77354,412.35068 215.03131,412.26346 C 215.36444,412.15073 215.948,412.37143 215.948,412.37143 L 215.03934,411.91721 L 214.13068,412.37143 z"
               style="fill:#cccccc;fill-opacity:1;fill-rule:nonzero;stroke:none;stroke-width:0.25;stroke-linecap:butt;stroke-linejoin:bevel;stroke-miterlimit:4;stroke-dasharray:none;stroke-dashoffset:0;stroke-opacity:1" />
            <path
               style="fill:#cccccc;fill-opacity:1;fill-rule:nonzero;stroke:none;stroke-width:0.25;stroke-linecap:butt;stroke-linejoin:bevel;stroke-miterlimit:4;stroke-dasharray:none;stroke-dashoffset:0;stroke-opacity:1"
               d="M 206.66193,416.12143 C 206.66193,416.12143 207.30479,416.10068 207.56256,416.01346 C 207.89569,415.90073 208.47925,416.12143 208.47925,416.12143 L 207.57059,415.66721 L 206.66193,416.12143 z"
               id="path7065"
               sodipodi:nodetypes="csccc" />
            <path
               sodipodi:nodetypes="csccc"
               id="path7067"
               d="M 201.69318,416.18393 C 201.69318,416.18393 202.33604,416.16318 202.59381,416.07596 C 202.92694,415.96323 203.5105,416.18393 203.5105,416.18393 L 202.60184,415.72971 L 201.69318,416.18393 z"
               style="fill:#cccccc;fill-opacity:1;fill-rule:nonzero;stroke:none;stroke-width:0.25;stroke-linecap:butt;stroke-linejoin:bevel;stroke-miterlimit:4;stroke-dasharray:none;stroke-dashoffset:0;stroke-opacity:1" />
            <path
               style="fill:#cccccc;fill-opacity:1;fill-rule:nonzero;stroke:none;stroke-width:0.25;stroke-linecap:butt;stroke-linejoin:bevel;stroke-miterlimit:4;stroke-dasharray:none;stroke-dashoffset:0;stroke-opacity:1"
               d="M 194.16193,412.37143 C 194.16193,412.37143 194.80479,412.35068 195.06256,412.26346 C 195.39569,412.15073 195.97925,412.37143 195.97925,412.37143 L 195.07059,411.91721 L 194.16193,412.37143 z"
               id="path7069"
               sodipodi:nodetypes="csccc" />
          </g>
          <path
             style="fill:#f7f7f7;fill-opacity:1;fill-rule:nonzero;stroke:none;stroke-width:0.25;stroke-linecap:butt;stroke-linejoin:bevel;stroke-miterlimit:4;stroke-dasharray:none;stroke-dashoffset:0;stroke-opacity:1"
             d="M 190.05813,414.20003 L 205.06144,406.70003 L 220.06474,414.20003 L 205.06144,421.70003 L 190.05813,414.20003 z"
             id="path7101" />
          <path
             style="fill:#2e3436;fill-opacity:1;fill-rule:nonzero;stroke:none;stroke-width:0.25;stroke-linecap:butt;stroke-linejoin:bevel;stroke-miterlimit:4;stroke-dasharray:none;stroke-dashoffset:0;stroke-opacity:1"
             d="M 202.56144,407.94975 L 205.06144,409.19947 L 207.56144,407.94975 L 205.06144,406.70003 L 202.56144,407.94975 z"
             id="path7103" />
          <path
             id="path7105"
             d="M 195.05977,411.69975 L 197.55977,412.94947 L 200.05977,411.69975 L 197.55977,410.45003 L 195.05977,411.69975 z"
             style="fill:#2e3436;fill-opacity:1;fill-rule:nonzero;stroke:none;stroke-width:0.25;stroke-linecap:butt;stroke-linejoin:bevel;stroke-miterlimit:4;stroke-dasharray:none;stroke-dashoffset:0;stroke-opacity:1" />
          <path
             id="path7107"
             d="M 210.06253,411.69947 L 212.56253,412.94919 L 215.06253,411.69947 L 212.56253,410.44975 L 210.06253,411.69947 z"
             style="fill:#2e3436;fill-opacity:1;fill-rule:nonzero;stroke:none;stroke-width:0.25;stroke-linecap:butt;stroke-linejoin:bevel;stroke-miterlimit:4;stroke-dasharray:none;stroke-dashoffset:0;stroke-opacity:1" />
          <path
             id="path7109"
             d="M 202.56144,415.45031 L 205.06144,416.70003 L 207.56144,415.45031 L 205.06144,414.20059 L 202.56144,415.45031 z"
             style="fill:#2e3436;fill-opacity:1;fill-rule:nonzero;stroke:none;stroke-width:0.25;stroke-linecap:butt;stroke-linejoin:bevel;stroke-miterlimit:4;stroke-dasharray:none;stroke-dashoffset:0;stroke-opacity:1" />
          <path
             style="fill:#2e3436;fill-opacity:1;fill-rule:nonzero;stroke:none;stroke-width:0.25;stroke-linecap:butt;stroke-linejoin:bevel;stroke-miterlimit:4;stroke-dasharray:none;stroke-dashoffset:0;stroke-opacity:1"
             d="M 200.06088,411.70031 L 205.06088,414.19975 L 210.06088,411.70031 L 205.06088,409.20087 L 200.06088,411.70031 z"
             id="path7111" />
          <path
             id="path7113"
             d="M 197.56033,415.44975 L 200.06033,416.69947 L 202.56033,415.44975 L 200.06033,414.20003 L 197.56033,415.44975 z"
             style="fill:#2e3436;fill-opacity:1;fill-rule:nonzero;stroke:none;stroke-width:0.25;stroke-linecap:butt;stroke-linejoin:bevel;stroke-miterlimit:4;stroke-dasharray:none;stroke-dashoffset:0;stroke-opacity:1" />
          <path
             id="path7115"
             d="M 192.56033,415.44975 L 197.56033,417.94919 L 202.56033,415.44975 L 197.56033,412.95031 L 192.56033,415.44975 z"
             style="fill:#2e3436;fill-opacity:1;fill-rule:nonzero;stroke:none;stroke-width:0.25;stroke-linecap:butt;stroke-linejoin:bevel;stroke-miterlimit:4;stroke-dasharray:none;stroke-dashoffset:0;stroke-opacity:1" />
          <path
             id="path7117"
             d="M 207.56253,415.44919 L 212.56253,417.94863 L 217.56253,415.44919 L 212.56253,412.94975 L 207.56253,415.44919 z"
             style="fill:#2e3436;fill-opacity:1;fill-rule:nonzero;stroke:none;stroke-width:0.25;stroke-linecap:butt;stroke-linejoin:bevel;stroke-miterlimit:4;stroke-dasharray:none;stroke-dashoffset:0;stroke-opacity:1" />
          <path
             style="fill:#2e3436;fill-opacity:1;fill-rule:nonzero;stroke:none;stroke-width:0.25;stroke-linecap:butt;stroke-linejoin:bevel;stroke-miterlimit:4;stroke-dasharray:none;stroke-dashoffset:0;stroke-opacity:1"
             d="M 200.06088,419.20031 L 205.06088,421.69975 L 210.06088,419.20031 L 205.06088,416.70087 L 200.06088,419.20031 z"
             id="path7119" />
          <path
             sodipodi:nodetypes="csccc"
             id="path7121"
             d="M 205.99219,413.42448 C 205.99219,413.42448 205.34933,413.44523 205.09156,413.53245 C 204.75843,413.64518 204.17487,413.42448 204.17487,413.42448 L 205.08353,413.8787 L 205.99219,413.42448 z"
             style="fill:#ffffff;fill-opacity:1;fill-rule:nonzero;stroke:none;stroke-width:0.25;stroke-linecap:butt;stroke-linejoin:bevel;stroke-miterlimit:4;stroke-dasharray:none;stroke-dashoffset:0;stroke-opacity:1" />
          <path
             style="fill:#cccccc;fill-opacity:1;fill-rule:nonzero;stroke:none;stroke-width:0.25;stroke-linecap:butt;stroke-linejoin:bevel;stroke-miterlimit:4;stroke-dasharray:none;stroke-dashoffset:0;stroke-opacity:1"
             d="M 199.16193,412.37143 C 199.16193,412.37143 199.80479,412.35068 200.06256,412.26346 C 200.39569,412.15073 200.97925,412.37143 200.97925,412.37143 L 200.07059,411.91721 L 199.16193,412.37143 z"
             id="path7137"
             sodipodi:nodetypes="csccc" />
          <path
             sodipodi:nodetypes="csccc"
             id="path7139"
             d="M 209.22443,412.34018 C 209.22443,412.34018 209.86729,412.31943 210.12506,412.23221 C 210.45819,412.11948 211.04175,412.34018 211.04175,412.34018 L 210.13309,411.88596 L 209.22443,412.34018 z"
             style="fill:#cccccc;fill-opacity:1;fill-rule:nonzero;stroke:none;stroke-width:0.25;stroke-linecap:butt;stroke-linejoin:bevel;stroke-miterlimit:4;stroke-dasharray:none;stroke-dashoffset:0;stroke-opacity:1" />
          <path
             style="fill:#cccccc;fill-opacity:1;fill-rule:nonzero;stroke:none;stroke-width:0.25;stroke-linecap:butt;stroke-linejoin:bevel;stroke-miterlimit:4;stroke-dasharray:none;stroke-dashoffset:0;stroke-opacity:1"
             d="M 201.66193,408.65268 C 201.66193,408.65268 202.30479,408.63193 202.56256,408.54471 C 202.89569,408.43198 203.47925,408.65268 203.47925,408.65268 L 202.57059,408.19846 L 201.66193,408.65268 z"
             id="path7141"
             sodipodi:nodetypes="csccc" />
          <path
             sodipodi:nodetypes="csccc"
             id="path7143"
             d="M 206.66193,408.59018 C 206.66193,408.59018 207.30479,408.56943 207.56256,408.48221 C 207.89569,408.36948 208.47925,408.59018 208.47925,408.59018 L 207.57059,408.13596 L 206.66193,408.59018 z"
             style="fill:#cccccc;fill-opacity:1;fill-rule:nonzero;stroke:none;stroke-width:0.25;stroke-linecap:butt;stroke-linejoin:bevel;stroke-miterlimit:4;stroke-dasharray:none;stroke-dashoffset:0;stroke-opacity:1" />
          <path
             style="fill:#cccccc;fill-opacity:1;fill-rule:nonzero;stroke:none;stroke-width:0.25;stroke-linecap:butt;stroke-linejoin:bevel;stroke-miterlimit:4;stroke-dasharray:none;stroke-dashoffset:0;stroke-opacity:1"
             d="M 214.13068,412.37143 C 214.13068,412.37143 214.77354,412.35068 215.03131,412.26346 C 215.36444,412.15073 215.948,412.37143 215.948,412.37143 L 215.03934,411.91721 L 214.13068,412.37143 z"
             id="path7145"
             sodipodi:nodetypes="csccc" />
          <path
             sodipodi:nodetypes="csccc"
             id="path7147"
             d="M 206.66193,416.12143 C 206.66193,416.12143 207.30479,416.10068 207.56256,416.01346 C 207.89569,415.90073 208.47925,416.12143 208.47925,416.12143 L 207.57059,415.66721 L 206.66193,416.12143 z"
             style="fill:#cccccc;fill-opacity:1;fill-rule:nonzero;stroke:none;stroke-width:0.25;stroke-linecap:butt;stroke-linejoin:bevel;stroke-miterlimit:4;stroke-dasharray:none;stroke-dashoffset:0;stroke-opacity:1" />
          <path
             style="fill:#cccccc;fill-opacity:1;fill-rule:nonzero;stroke:none;stroke-width:0.25;stroke-linecap:butt;stroke-linejoin:bevel;stroke-miterlimit:4;stroke-dasharray:none;stroke-dashoffset:0;stroke-opacity:1"
             d="M 201.69318,416.18393 C 201.69318,416.18393 202.33604,416.16318 202.59381,416.07596 C 202.92694,415.96323 203.5105,416.18393 203.5105,416.18393 L 202.60184,415.72971 L 201.69318,416.18393 z"
             id="path7149"
             sodipodi:nodetypes="csccc" />
          <path
             sodipodi:nodetypes="csccc"
             id="path7151"
             d="M 194.16193,412.37143 C 194.16193,412.37143 194.80479,412.35068 195.06256,412.26346 C 195.39569,412.15073 195.97925,412.37143 195.97925,412.37143 L 195.07059,411.91721 L 194.16193,412.37143 z"
             style="fill:#cccccc;fill-opacity:1;fill-rule:nonzero;stroke:none;stroke-width:0.25;stroke-linecap:butt;stroke-linejoin:bevel;stroke-miterlimit:4;stroke-dasharray:none;stroke-dashoffset:0;stroke-opacity:1" />
          <path
             style="fill:#ffffff;fill-opacity:1;fill-rule:nonzero;stroke:none;stroke-width:0.25;stroke-linecap:butt;stroke-linejoin:bevel;stroke-miterlimit:4;stroke-dasharray:none;stroke-dashoffset:0;stroke-opacity:1"
             d="M 198.47918,417.13679 C 198.47918,417.13679 197.83632,417.15754 197.57855,417.24476 C 197.24542,417.35749 196.66186,417.13679 196.66186,417.13679 L 197.57052,417.59101 L 198.47918,417.13679 z"
             id="path7261"
             sodipodi:nodetypes="csccc" />
          <path
             sodipodi:nodetypes="csccc"
             id="path7263"
             d="M 213.46101,417.0484 C 213.46101,417.0484 212.81815,417.06915 212.56038,417.15637 C 212.22725,417.2691 211.64369,417.0484 211.64369,417.0484 L 212.55235,417.50262 L 213.46101,417.0484 z"
             style="fill:#ffffff;fill-opacity:1;fill-rule:nonzero;stroke:none;stroke-width:0.25;stroke-linecap:butt;stroke-linejoin:bevel;stroke-miterlimit:4;stroke-dasharray:none;stroke-dashoffset:0;stroke-opacity:1" />
          <path
             style="fill:#ffffff;fill-opacity:1;fill-rule:nonzero;stroke:none;stroke-width:0.25;stroke-linecap:butt;stroke-linejoin:bevel;stroke-miterlimit:4;stroke-dasharray:none;stroke-dashoffset:0;stroke-opacity:1"
             d="M 206.16897,420.8049 C 206.16897,420.8049 205.52611,420.82565 205.26834,420.91287 C 204.93521,421.0256 204.35165,420.8049 204.35165,420.8049 L 205.26031,421.25912 L 206.16897,420.8049 z"
             id="path7265"
             sodipodi:nodetypes="csccc" />
        </g>
      </g>
    </g>
  </g>
</svg>
